G04 #@! TF.GenerationSoftware,KiCad,Pcbnew,(5.1.2)-1*
G04 #@! TF.CreationDate,2019-06-18T22:03:49-03:00*
G04 #@! TF.ProjectId,Boost,426f6f73-742e-46b6-9963-61645f706362,rev?*
G04 #@! TF.SameCoordinates,Original*
G04 #@! TF.FileFunction,Copper,L1,Top*
G04 #@! TF.FilePolarity,Positive*
%FSLAX46Y46*%
G04 Gerber Fmt 4.6, Leading zero omitted, Abs format (unit mm)*
G04 Created by KiCad (PCBNEW (5.1.2)-1) date 2019-06-18 22:03:50*
%MOMM*%
%LPD*%
G04 APERTURE LIST*
%ADD10C,1.524000*%
%ADD11R,1.524000X1.524000*%
%ADD12C,10.160000*%
%ADD13C,2.000000*%
%ADD14R,2.000000X2.000000*%
%ADD15C,1.600000*%
%ADD16C,2.400000*%
%ADD17R,2.400000X2.400000*%
%ADD18O,1.600000X1.600000*%
%ADD19O,2.400000X2.400000*%
%ADD20O,1.700000X1.700000*%
%ADD21R,1.700000X1.700000*%
%ADD22O,2.200000X2.200000*%
%ADD23R,2.200000X2.200000*%
%ADD24C,1.440000*%
%ADD25O,1.905000X2.000000*%
%ADD26R,1.905000X2.000000*%
%ADD27R,1.600000X1.600000*%
%ADD28C,1.000000*%
G04 APERTURE END LIST*
D10*
X153750000Y-41000000D03*
X127750000Y-41000000D03*
X153750000Y-49000000D03*
D11*
X127750000Y-49000000D03*
D12*
X187000000Y-43000000D03*
X113000000Y-43000000D03*
X187000000Y-117000000D03*
X113000000Y-117000000D03*
D13*
X113000000Y-77500000D03*
D14*
X113000000Y-72500000D03*
D15*
X122500000Y-84500000D03*
X122500000Y-79500000D03*
D13*
X152500000Y-77750000D03*
D14*
X152500000Y-72750000D03*
D16*
X181250000Y-77750000D03*
D17*
X181250000Y-72750000D03*
D18*
X174660000Y-38000000D03*
D15*
X164500000Y-38000000D03*
D18*
X174660000Y-47000000D03*
D15*
X164500000Y-47000000D03*
D18*
X185500000Y-67500000D03*
D15*
X185500000Y-57340000D03*
D18*
X154061280Y-111459900D03*
D15*
X154061280Y-101299900D03*
D18*
X137840000Y-87250000D03*
D15*
X148000000Y-87250000D03*
D19*
X194500000Y-110460000D03*
D16*
X194500000Y-49500000D03*
D18*
X144590000Y-66000000D03*
D15*
X154750000Y-66000000D03*
D18*
X118434480Y-69284300D03*
D15*
X118434480Y-59124300D03*
D18*
X160586540Y-101289740D03*
D15*
X160586540Y-111449740D03*
D18*
X166733340Y-101289740D03*
D15*
X166733340Y-111449740D03*
D18*
X137840000Y-92500000D03*
D15*
X148000000Y-92500000D03*
D20*
X180500000Y-60960000D03*
D21*
X180500000Y-63500000D03*
D20*
X168210000Y-33750000D03*
D21*
X170750000Y-33750000D03*
D20*
X168210000Y-42750000D03*
D21*
X170750000Y-42750000D03*
D22*
X168550000Y-53250000D03*
D23*
X181250000Y-53250000D03*
D15*
X144500000Y-75250000D03*
X144500000Y-70250000D03*
X137000000Y-80500000D03*
X137000000Y-83000000D03*
D24*
X173441480Y-107726100D03*
X173441480Y-105186100D03*
X173441480Y-102646100D03*
D25*
X164486080Y-88377900D03*
X167026080Y-88377900D03*
D26*
X169566080Y-88377900D03*
D22*
X181250000Y-85000000D03*
D23*
X171090000Y-85000000D03*
D15*
X124500000Y-64500000D03*
X124500000Y-62000000D03*
X129750000Y-83000000D03*
X129750000Y-80500000D03*
D18*
X138770480Y-64649700D03*
X131150480Y-72269700D03*
X138770480Y-67189700D03*
X131150480Y-69729700D03*
X138770480Y-69729700D03*
X131150480Y-67189700D03*
X138770480Y-72269700D03*
D27*
X131150480Y-64649700D03*
D13*
X179025000Y-92275000D03*
X155025000Y-92275000D03*
X125499996Y-89500000D03*
X125500004Y-75000000D03*
D28*
X125499996Y-89500000D02*
X125499996Y-75000008D01*
X125499996Y-75000008D02*
X125500004Y-75000000D01*
M02*
