G04 #@! TF.GenerationSoftware,KiCad,Pcbnew,(5.1.2)-1*
G04 #@! TF.CreationDate,2019-06-18T22:03:50-03:00*
G04 #@! TF.ProjectId,Boost,426f6f73-742e-46b6-9963-61645f706362,rev?*
G04 #@! TF.SameCoordinates,Original*
G04 #@! TF.FileFunction,Soldermask,Bot*
G04 #@! TF.FilePolarity,Negative*
%FSLAX46Y46*%
G04 Gerber Fmt 4.6, Leading zero omitted, Abs format (unit mm)*
G04 Created by KiCad (PCBNEW (5.1.2)-1) date 2019-06-18 22:03:50*
%MOMM*%
%LPD*%
G04 APERTURE LIST*
%ADD10C,0.100000*%
G04 APERTURE END LIST*
D10*
G36*
X188001008Y-111967590D02*
G01*
X188496658Y-112066181D01*
X189430440Y-112452967D01*
X190270822Y-113014492D01*
X190985508Y-113729178D01*
X191547033Y-114569560D01*
X191933819Y-115503342D01*
X192131000Y-116494641D01*
X192131000Y-117505359D01*
X191933819Y-118496658D01*
X191547033Y-119430440D01*
X190985508Y-120270822D01*
X190270822Y-120985508D01*
X189430440Y-121547033D01*
X188496658Y-121933819D01*
X188001009Y-122032409D01*
X187505361Y-122131000D01*
X186494639Y-122131000D01*
X185998991Y-122032409D01*
X185503342Y-121933819D01*
X184569560Y-121547033D01*
X183729178Y-120985508D01*
X183014492Y-120270822D01*
X182452967Y-119430440D01*
X182066181Y-118496658D01*
X181869000Y-117505359D01*
X181869000Y-116494641D01*
X182066181Y-115503342D01*
X182452967Y-114569560D01*
X183014492Y-113729178D01*
X183729178Y-113014492D01*
X184569560Y-112452967D01*
X185503342Y-112066181D01*
X185998992Y-111967590D01*
X186494639Y-111869000D01*
X187505361Y-111869000D01*
X188001008Y-111967590D01*
X188001008Y-111967590D01*
G37*
G36*
X114001008Y-111967590D02*
G01*
X114496658Y-112066181D01*
X115430440Y-112452967D01*
X116270822Y-113014492D01*
X116985508Y-113729178D01*
X117547033Y-114569560D01*
X117933819Y-115503342D01*
X118131000Y-116494641D01*
X118131000Y-117505359D01*
X117933819Y-118496658D01*
X117547033Y-119430440D01*
X116985508Y-120270822D01*
X116270822Y-120985508D01*
X115430440Y-121547033D01*
X114496658Y-121933819D01*
X114001009Y-122032409D01*
X113505361Y-122131000D01*
X112494639Y-122131000D01*
X111998991Y-122032409D01*
X111503342Y-121933819D01*
X110569560Y-121547033D01*
X109729178Y-120985508D01*
X109014492Y-120270822D01*
X108452967Y-119430440D01*
X108066181Y-118496658D01*
X107869000Y-117505359D01*
X107869000Y-116494641D01*
X108066181Y-115503342D01*
X108452967Y-114569560D01*
X109014492Y-113729178D01*
X109729178Y-113014492D01*
X110569560Y-112452967D01*
X111503342Y-112066181D01*
X111998992Y-111967590D01*
X112494639Y-111869000D01*
X113505361Y-111869000D01*
X114001008Y-111967590D01*
X114001008Y-111967590D01*
G37*
G36*
X154228103Y-110621213D02*
G01*
X154388522Y-110669876D01*
X154454681Y-110705239D01*
X154536358Y-110748896D01*
X154665939Y-110855241D01*
X154772284Y-110984822D01*
X154772285Y-110984824D01*
X154851304Y-111132658D01*
X154899967Y-111293077D01*
X154916397Y-111459900D01*
X154899967Y-111626723D01*
X154851304Y-111787142D01*
X154807550Y-111869000D01*
X154772284Y-111934978D01*
X154665939Y-112064559D01*
X154536358Y-112170904D01*
X154536356Y-112170905D01*
X154388522Y-112249924D01*
X154228103Y-112298587D01*
X154103084Y-112310900D01*
X154019476Y-112310900D01*
X153894457Y-112298587D01*
X153734038Y-112249924D01*
X153586204Y-112170905D01*
X153586202Y-112170904D01*
X153456621Y-112064559D01*
X153350276Y-111934978D01*
X153315010Y-111869000D01*
X153271256Y-111787142D01*
X153222593Y-111626723D01*
X153206163Y-111459900D01*
X153222593Y-111293077D01*
X153271256Y-111132658D01*
X153350275Y-110984824D01*
X153350276Y-110984822D01*
X153456621Y-110855241D01*
X153586202Y-110748896D01*
X153667879Y-110705239D01*
X153734038Y-110669876D01*
X153894457Y-110621213D01*
X154019476Y-110608900D01*
X154103084Y-110608900D01*
X154228103Y-110621213D01*
X154228103Y-110621213D01*
G37*
G36*
X166981568Y-110631443D02*
G01*
X167136440Y-110695593D01*
X167275821Y-110788725D01*
X167394355Y-110907259D01*
X167487487Y-111046640D01*
X167551637Y-111201512D01*
X167584340Y-111365924D01*
X167584340Y-111533556D01*
X167551637Y-111697968D01*
X167487487Y-111852840D01*
X167394355Y-111992221D01*
X167275821Y-112110755D01*
X167136440Y-112203887D01*
X166981568Y-112268037D01*
X166817156Y-112300740D01*
X166649524Y-112300740D01*
X166485112Y-112268037D01*
X166330240Y-112203887D01*
X166190859Y-112110755D01*
X166072325Y-111992221D01*
X165979193Y-111852840D01*
X165915043Y-111697968D01*
X165882340Y-111533556D01*
X165882340Y-111365924D01*
X165915043Y-111201512D01*
X165979193Y-111046640D01*
X166072325Y-110907259D01*
X166190859Y-110788725D01*
X166330240Y-110695593D01*
X166485112Y-110631443D01*
X166649524Y-110598740D01*
X166817156Y-110598740D01*
X166981568Y-110631443D01*
X166981568Y-110631443D01*
G37*
G36*
X160834768Y-110631443D02*
G01*
X160989640Y-110695593D01*
X161129021Y-110788725D01*
X161247555Y-110907259D01*
X161340687Y-111046640D01*
X161404837Y-111201512D01*
X161437540Y-111365924D01*
X161437540Y-111533556D01*
X161404837Y-111697968D01*
X161340687Y-111852840D01*
X161247555Y-111992221D01*
X161129021Y-112110755D01*
X160989640Y-112203887D01*
X160834768Y-112268037D01*
X160670356Y-112300740D01*
X160502724Y-112300740D01*
X160338312Y-112268037D01*
X160183440Y-112203887D01*
X160044059Y-112110755D01*
X159925525Y-111992221D01*
X159832393Y-111852840D01*
X159768243Y-111697968D01*
X159735540Y-111533556D01*
X159735540Y-111365924D01*
X159768243Y-111201512D01*
X159832393Y-111046640D01*
X159925525Y-110907259D01*
X160044059Y-110788725D01*
X160183440Y-110695593D01*
X160338312Y-110631443D01*
X160502724Y-110598740D01*
X160670356Y-110598740D01*
X160834768Y-110631443D01*
X160834768Y-110631443D01*
G37*
G36*
X194745239Y-109227101D02*
G01*
X194981053Y-109298634D01*
X195198381Y-109414799D01*
X195388871Y-109571129D01*
X195545201Y-109761619D01*
X195661366Y-109978947D01*
X195732899Y-110214761D01*
X195757053Y-110460000D01*
X195732899Y-110705239D01*
X195661366Y-110941053D01*
X195545201Y-111158381D01*
X195388871Y-111348871D01*
X195198381Y-111505201D01*
X194981053Y-111621366D01*
X194745239Y-111692899D01*
X194561457Y-111711000D01*
X194438543Y-111711000D01*
X194254761Y-111692899D01*
X194018947Y-111621366D01*
X193801619Y-111505201D01*
X193611129Y-111348871D01*
X193454799Y-111158381D01*
X193338634Y-110941053D01*
X193267101Y-110705239D01*
X193242947Y-110460000D01*
X193267101Y-110214761D01*
X193338634Y-109978947D01*
X193454799Y-109761619D01*
X193611129Y-109571129D01*
X193801619Y-109414799D01*
X194018947Y-109298634D01*
X194254761Y-109227101D01*
X194438543Y-109209000D01*
X194561457Y-109209000D01*
X194745239Y-109227101D01*
X194745239Y-109227101D01*
G37*
G36*
X173567069Y-106964976D02*
G01*
X173666373Y-106984729D01*
X173806686Y-107042848D01*
X173932964Y-107127225D01*
X174040355Y-107234616D01*
X174124732Y-107360894D01*
X174182851Y-107501207D01*
X174212480Y-107650163D01*
X174212480Y-107802037D01*
X174182851Y-107950993D01*
X174124732Y-108091306D01*
X174040355Y-108217584D01*
X173932964Y-108324975D01*
X173806686Y-108409352D01*
X173666373Y-108467471D01*
X173567069Y-108487224D01*
X173517418Y-108497100D01*
X173365542Y-108497100D01*
X173315891Y-108487224D01*
X173216587Y-108467471D01*
X173076274Y-108409352D01*
X172949996Y-108324975D01*
X172842605Y-108217584D01*
X172758228Y-108091306D01*
X172700109Y-107950993D01*
X172670480Y-107802037D01*
X172670480Y-107650163D01*
X172700109Y-107501207D01*
X172758228Y-107360894D01*
X172842605Y-107234616D01*
X172949996Y-107127225D01*
X173076274Y-107042848D01*
X173216587Y-106984729D01*
X173315891Y-106964976D01*
X173365542Y-106955100D01*
X173517418Y-106955100D01*
X173567069Y-106964976D01*
X173567069Y-106964976D01*
G37*
G36*
X173567069Y-104424976D02*
G01*
X173666373Y-104444729D01*
X173806686Y-104502848D01*
X173932964Y-104587225D01*
X174040355Y-104694616D01*
X174124732Y-104820894D01*
X174182851Y-104961207D01*
X174212480Y-105110163D01*
X174212480Y-105262037D01*
X174182851Y-105410993D01*
X174124732Y-105551306D01*
X174040355Y-105677584D01*
X173932964Y-105784975D01*
X173806686Y-105869352D01*
X173666373Y-105927471D01*
X173567069Y-105947224D01*
X173517418Y-105957100D01*
X173365542Y-105957100D01*
X173315891Y-105947224D01*
X173216587Y-105927471D01*
X173076274Y-105869352D01*
X172949996Y-105784975D01*
X172842605Y-105677584D01*
X172758228Y-105551306D01*
X172700109Y-105410993D01*
X172670480Y-105262037D01*
X172670480Y-105110163D01*
X172700109Y-104961207D01*
X172758228Y-104820894D01*
X172842605Y-104694616D01*
X172949996Y-104587225D01*
X173076274Y-104502848D01*
X173216587Y-104444729D01*
X173315891Y-104424976D01*
X173365542Y-104415100D01*
X173517418Y-104415100D01*
X173567069Y-104424976D01*
X173567069Y-104424976D01*
G37*
G36*
X173567069Y-101884976D02*
G01*
X173666373Y-101904729D01*
X173806686Y-101962848D01*
X173932964Y-102047225D01*
X174040355Y-102154616D01*
X174124732Y-102280894D01*
X174182851Y-102421207D01*
X174212480Y-102570163D01*
X174212480Y-102722037D01*
X174182851Y-102870993D01*
X174124732Y-103011306D01*
X174040355Y-103137584D01*
X173932964Y-103244975D01*
X173806686Y-103329352D01*
X173666373Y-103387471D01*
X173567069Y-103407224D01*
X173517418Y-103417100D01*
X173365542Y-103417100D01*
X173315891Y-103407224D01*
X173216587Y-103387471D01*
X173076274Y-103329352D01*
X172949996Y-103244975D01*
X172842605Y-103137584D01*
X172758228Y-103011306D01*
X172700109Y-102870993D01*
X172670480Y-102722037D01*
X172670480Y-102570163D01*
X172700109Y-102421207D01*
X172758228Y-102280894D01*
X172842605Y-102154616D01*
X172949996Y-102047225D01*
X173076274Y-101962848D01*
X173216587Y-101904729D01*
X173315891Y-101884976D01*
X173365542Y-101875100D01*
X173517418Y-101875100D01*
X173567069Y-101884976D01*
X173567069Y-101884976D01*
G37*
G36*
X154309508Y-100481603D02*
G01*
X154464380Y-100545753D01*
X154603761Y-100638885D01*
X154722295Y-100757419D01*
X154815427Y-100896800D01*
X154879577Y-101051672D01*
X154912280Y-101216084D01*
X154912280Y-101383716D01*
X154879577Y-101548128D01*
X154815427Y-101703000D01*
X154722295Y-101842381D01*
X154603761Y-101960915D01*
X154464380Y-102054047D01*
X154309508Y-102118197D01*
X154145096Y-102150900D01*
X153977464Y-102150900D01*
X153813052Y-102118197D01*
X153658180Y-102054047D01*
X153518799Y-101960915D01*
X153400265Y-101842381D01*
X153307133Y-101703000D01*
X153242983Y-101548128D01*
X153210280Y-101383716D01*
X153210280Y-101216084D01*
X153242983Y-101051672D01*
X153307133Y-100896800D01*
X153400265Y-100757419D01*
X153518799Y-100638885D01*
X153658180Y-100545753D01*
X153813052Y-100481603D01*
X153977464Y-100448900D01*
X154145096Y-100448900D01*
X154309508Y-100481603D01*
X154309508Y-100481603D01*
G37*
G36*
X160753363Y-100451053D02*
G01*
X160913782Y-100499716D01*
X160999909Y-100545752D01*
X161061618Y-100578736D01*
X161191199Y-100685081D01*
X161297544Y-100814662D01*
X161297545Y-100814664D01*
X161376564Y-100962498D01*
X161425227Y-101122917D01*
X161441657Y-101289740D01*
X161425227Y-101456563D01*
X161376564Y-101616982D01*
X161330588Y-101702997D01*
X161297544Y-101764818D01*
X161191199Y-101894399D01*
X161061618Y-102000744D01*
X161061616Y-102000745D01*
X160913782Y-102079764D01*
X160753363Y-102128427D01*
X160628344Y-102140740D01*
X160544736Y-102140740D01*
X160419717Y-102128427D01*
X160259298Y-102079764D01*
X160111464Y-102000745D01*
X160111462Y-102000744D01*
X159981881Y-101894399D01*
X159875536Y-101764818D01*
X159842492Y-101702997D01*
X159796516Y-101616982D01*
X159747853Y-101456563D01*
X159731423Y-101289740D01*
X159747853Y-101122917D01*
X159796516Y-100962498D01*
X159875535Y-100814664D01*
X159875536Y-100814662D01*
X159981881Y-100685081D01*
X160111462Y-100578736D01*
X160173171Y-100545752D01*
X160259298Y-100499716D01*
X160419717Y-100451053D01*
X160544736Y-100438740D01*
X160628344Y-100438740D01*
X160753363Y-100451053D01*
X160753363Y-100451053D01*
G37*
G36*
X166900163Y-100451053D02*
G01*
X167060582Y-100499716D01*
X167146709Y-100545752D01*
X167208418Y-100578736D01*
X167337999Y-100685081D01*
X167444344Y-100814662D01*
X167444345Y-100814664D01*
X167523364Y-100962498D01*
X167572027Y-101122917D01*
X167588457Y-101289740D01*
X167572027Y-101456563D01*
X167523364Y-101616982D01*
X167477388Y-101702997D01*
X167444344Y-101764818D01*
X167337999Y-101894399D01*
X167208418Y-102000744D01*
X167208416Y-102000745D01*
X167060582Y-102079764D01*
X166900163Y-102128427D01*
X166775144Y-102140740D01*
X166691536Y-102140740D01*
X166566517Y-102128427D01*
X166406098Y-102079764D01*
X166258264Y-102000745D01*
X166258262Y-102000744D01*
X166128681Y-101894399D01*
X166022336Y-101764818D01*
X165989292Y-101702997D01*
X165943316Y-101616982D01*
X165894653Y-101456563D01*
X165878223Y-101289740D01*
X165894653Y-101122917D01*
X165943316Y-100962498D01*
X166022335Y-100814664D01*
X166022336Y-100814662D01*
X166128681Y-100685081D01*
X166258262Y-100578736D01*
X166319971Y-100545752D01*
X166406098Y-100499716D01*
X166566517Y-100451053D01*
X166691536Y-100438740D01*
X166775144Y-100438740D01*
X166900163Y-100451053D01*
X166900163Y-100451053D01*
G37*
G36*
X138006823Y-91661313D02*
G01*
X138167242Y-91709976D01*
X138234361Y-91745852D01*
X138315078Y-91788996D01*
X138444659Y-91895341D01*
X138551004Y-92024922D01*
X138551005Y-92024924D01*
X138630024Y-92172758D01*
X138678687Y-92333177D01*
X138695117Y-92500000D01*
X138678687Y-92666823D01*
X138630024Y-92827242D01*
X138589477Y-92903100D01*
X138551004Y-92975078D01*
X138444659Y-93104659D01*
X138315078Y-93211004D01*
X138315076Y-93211005D01*
X138167242Y-93290024D01*
X138006823Y-93338687D01*
X137881804Y-93351000D01*
X137798196Y-93351000D01*
X137673177Y-93338687D01*
X137512758Y-93290024D01*
X137364924Y-93211005D01*
X137364922Y-93211004D01*
X137235341Y-93104659D01*
X137128996Y-92975078D01*
X137090523Y-92903100D01*
X137049976Y-92827242D01*
X137001313Y-92666823D01*
X136984883Y-92500000D01*
X137001313Y-92333177D01*
X137049976Y-92172758D01*
X137128995Y-92024924D01*
X137128996Y-92024922D01*
X137235341Y-91895341D01*
X137364922Y-91788996D01*
X137445639Y-91745852D01*
X137512758Y-91709976D01*
X137673177Y-91661313D01*
X137798196Y-91649000D01*
X137881804Y-91649000D01*
X138006823Y-91661313D01*
X138006823Y-91661313D01*
G37*
G36*
X148248228Y-91681703D02*
G01*
X148403100Y-91745853D01*
X148542481Y-91838985D01*
X148661015Y-91957519D01*
X148754147Y-92096900D01*
X148818297Y-92251772D01*
X148851000Y-92416184D01*
X148851000Y-92583816D01*
X148818297Y-92748228D01*
X148754147Y-92903100D01*
X148661015Y-93042481D01*
X148542481Y-93161015D01*
X148403100Y-93254147D01*
X148248228Y-93318297D01*
X148083816Y-93351000D01*
X147916184Y-93351000D01*
X147751772Y-93318297D01*
X147596900Y-93254147D01*
X147457519Y-93161015D01*
X147338985Y-93042481D01*
X147245853Y-92903100D01*
X147181703Y-92748228D01*
X147149000Y-92583816D01*
X147149000Y-92416184D01*
X147181703Y-92251772D01*
X147245853Y-92096900D01*
X147338985Y-91957519D01*
X147457519Y-91838985D01*
X147596900Y-91745853D01*
X147751772Y-91681703D01*
X147916184Y-91649000D01*
X148083816Y-91649000D01*
X148248228Y-91681703D01*
X148248228Y-91681703D01*
G37*
G36*
X164682800Y-87341420D02*
G01*
X164871961Y-87398801D01*
X165046292Y-87491983D01*
X165199095Y-87617385D01*
X165324497Y-87770188D01*
X165368262Y-87852067D01*
X165417678Y-87944517D01*
X165417679Y-87944520D01*
X165475060Y-88133681D01*
X165489580Y-88281107D01*
X165489580Y-88474694D01*
X165475060Y-88622120D01*
X165417679Y-88811281D01*
X165324497Y-88985612D01*
X165199095Y-89138415D01*
X165046292Y-89263817D01*
X164964413Y-89307582D01*
X164871963Y-89356998D01*
X164871960Y-89356999D01*
X164682799Y-89414380D01*
X164486080Y-89433755D01*
X164289360Y-89414380D01*
X164100199Y-89356999D01*
X163925868Y-89263817D01*
X163773065Y-89138415D01*
X163647663Y-88985612D01*
X163603898Y-88903733D01*
X163554482Y-88811283D01*
X163554481Y-88811280D01*
X163497100Y-88622119D01*
X163482580Y-88474693D01*
X163482580Y-88281106D01*
X163497100Y-88133680D01*
X163554481Y-87944519D01*
X163647663Y-87770188D01*
X163773065Y-87617385D01*
X163925868Y-87491983D01*
X164100200Y-87398801D01*
X164289361Y-87341420D01*
X164486080Y-87322045D01*
X164682800Y-87341420D01*
X164682800Y-87341420D01*
G37*
G36*
X167222800Y-87341420D02*
G01*
X167411961Y-87398801D01*
X167586292Y-87491983D01*
X167739095Y-87617385D01*
X167864497Y-87770188D01*
X167908262Y-87852067D01*
X167957678Y-87944517D01*
X167957679Y-87944520D01*
X168015060Y-88133681D01*
X168029580Y-88281107D01*
X168029580Y-88474694D01*
X168015060Y-88622120D01*
X167957679Y-88811281D01*
X167864497Y-88985612D01*
X167739095Y-89138415D01*
X167586292Y-89263817D01*
X167504413Y-89307582D01*
X167411963Y-89356998D01*
X167411960Y-89356999D01*
X167222799Y-89414380D01*
X167026080Y-89433755D01*
X166829360Y-89414380D01*
X166640199Y-89356999D01*
X166465868Y-89263817D01*
X166313065Y-89138415D01*
X166187663Y-88985612D01*
X166143898Y-88903733D01*
X166094482Y-88811283D01*
X166094481Y-88811280D01*
X166037100Y-88622119D01*
X166022580Y-88474693D01*
X166022580Y-88281106D01*
X166037100Y-88133680D01*
X166094481Y-87944519D01*
X166187663Y-87770188D01*
X166313065Y-87617385D01*
X166465868Y-87491983D01*
X166640200Y-87398801D01*
X166829361Y-87341420D01*
X167026080Y-87322045D01*
X167222800Y-87341420D01*
X167222800Y-87341420D01*
G37*
G36*
X170569580Y-89428900D02*
G01*
X168562580Y-89428900D01*
X168562580Y-87326900D01*
X170569580Y-87326900D01*
X170569580Y-89428900D01*
X170569580Y-89428900D01*
G37*
G36*
X138006823Y-86411313D02*
G01*
X138167242Y-86459976D01*
X138234361Y-86495852D01*
X138315078Y-86538996D01*
X138444659Y-86645341D01*
X138551004Y-86774922D01*
X138551005Y-86774924D01*
X138630024Y-86922758D01*
X138678687Y-87083177D01*
X138695117Y-87250000D01*
X138678687Y-87416823D01*
X138630024Y-87577242D01*
X138589477Y-87653100D01*
X138551004Y-87725078D01*
X138444659Y-87854659D01*
X138315078Y-87961004D01*
X138315076Y-87961005D01*
X138167242Y-88040024D01*
X138006823Y-88088687D01*
X137881804Y-88101000D01*
X137798196Y-88101000D01*
X137673177Y-88088687D01*
X137512758Y-88040024D01*
X137364924Y-87961005D01*
X137364922Y-87961004D01*
X137235341Y-87854659D01*
X137128996Y-87725078D01*
X137090523Y-87653100D01*
X137049976Y-87577242D01*
X137001313Y-87416823D01*
X136984883Y-87250000D01*
X137001313Y-87083177D01*
X137049976Y-86922758D01*
X137128995Y-86774924D01*
X137128996Y-86774922D01*
X137235341Y-86645341D01*
X137364922Y-86538996D01*
X137445639Y-86495852D01*
X137512758Y-86459976D01*
X137673177Y-86411313D01*
X137798196Y-86399000D01*
X137881804Y-86399000D01*
X138006823Y-86411313D01*
X138006823Y-86411313D01*
G37*
G36*
X148248228Y-86431703D02*
G01*
X148403100Y-86495853D01*
X148542481Y-86588985D01*
X148661015Y-86707519D01*
X148754147Y-86846900D01*
X148818297Y-87001772D01*
X148851000Y-87166184D01*
X148851000Y-87333816D01*
X148818297Y-87498228D01*
X148754147Y-87653100D01*
X148661015Y-87792481D01*
X148542481Y-87911015D01*
X148403100Y-88004147D01*
X148248228Y-88068297D01*
X148083816Y-88101000D01*
X147916184Y-88101000D01*
X147751772Y-88068297D01*
X147596900Y-88004147D01*
X147457519Y-87911015D01*
X147338985Y-87792481D01*
X147245853Y-87653100D01*
X147181703Y-87498228D01*
X147149000Y-87333816D01*
X147149000Y-87166184D01*
X147181703Y-87001772D01*
X147245853Y-86846900D01*
X147338985Y-86707519D01*
X147457519Y-86588985D01*
X147596900Y-86495853D01*
X147751772Y-86431703D01*
X147916184Y-86399000D01*
X148083816Y-86399000D01*
X148248228Y-86431703D01*
X148248228Y-86431703D01*
G37*
G36*
X181419271Y-83860103D02*
G01*
X181475635Y-83865654D01*
X181692600Y-83931470D01*
X181692602Y-83931471D01*
X181892555Y-84038347D01*
X182067818Y-84182182D01*
X182211653Y-84357445D01*
X182318529Y-84557398D01*
X182318530Y-84557400D01*
X182384346Y-84774365D01*
X182406569Y-85000000D01*
X182384346Y-85225635D01*
X182346317Y-85351000D01*
X182318529Y-85442602D01*
X182211653Y-85642555D01*
X182067818Y-85817818D01*
X181892555Y-85961653D01*
X181692602Y-86068529D01*
X181692600Y-86068530D01*
X181475635Y-86134346D01*
X181419271Y-86139897D01*
X181306545Y-86151000D01*
X181193455Y-86151000D01*
X181080729Y-86139897D01*
X181024365Y-86134346D01*
X180807400Y-86068530D01*
X180807398Y-86068529D01*
X180607445Y-85961653D01*
X180432182Y-85817818D01*
X180288347Y-85642555D01*
X180181471Y-85442602D01*
X180153684Y-85351000D01*
X180115654Y-85225635D01*
X180093431Y-85000000D01*
X180115654Y-84774365D01*
X180181470Y-84557400D01*
X180181471Y-84557398D01*
X180288347Y-84357445D01*
X180432182Y-84182182D01*
X180607445Y-84038347D01*
X180807398Y-83931471D01*
X180807400Y-83931470D01*
X181024365Y-83865654D01*
X181080729Y-83860103D01*
X181193455Y-83849000D01*
X181306545Y-83849000D01*
X181419271Y-83860103D01*
X181419271Y-83860103D01*
G37*
G36*
X172241000Y-86151000D02*
G01*
X169939000Y-86151000D01*
X169939000Y-83849000D01*
X172241000Y-83849000D01*
X172241000Y-86151000D01*
X172241000Y-86151000D01*
G37*
G36*
X122748228Y-83681703D02*
G01*
X122903100Y-83745853D01*
X123042481Y-83838985D01*
X123161015Y-83957519D01*
X123254147Y-84096900D01*
X123318297Y-84251772D01*
X123351000Y-84416184D01*
X123351000Y-84583816D01*
X123318297Y-84748228D01*
X123254147Y-84903100D01*
X123161015Y-85042481D01*
X123042481Y-85161015D01*
X122903100Y-85254147D01*
X122748228Y-85318297D01*
X122583816Y-85351000D01*
X122416184Y-85351000D01*
X122251772Y-85318297D01*
X122096900Y-85254147D01*
X121957519Y-85161015D01*
X121838985Y-85042481D01*
X121745853Y-84903100D01*
X121681703Y-84748228D01*
X121649000Y-84583816D01*
X121649000Y-84416184D01*
X121681703Y-84251772D01*
X121745853Y-84096900D01*
X121838985Y-83957519D01*
X121957519Y-83838985D01*
X122096900Y-83745853D01*
X122251772Y-83681703D01*
X122416184Y-83649000D01*
X122583816Y-83649000D01*
X122748228Y-83681703D01*
X122748228Y-83681703D01*
G37*
G36*
X129998228Y-82181703D02*
G01*
X130153100Y-82245853D01*
X130292481Y-82338985D01*
X130411015Y-82457519D01*
X130504147Y-82596900D01*
X130568297Y-82751772D01*
X130601000Y-82916184D01*
X130601000Y-83083816D01*
X130568297Y-83248228D01*
X130504147Y-83403100D01*
X130411015Y-83542481D01*
X130292481Y-83661015D01*
X130153100Y-83754147D01*
X129998228Y-83818297D01*
X129833816Y-83851000D01*
X129666184Y-83851000D01*
X129501772Y-83818297D01*
X129346900Y-83754147D01*
X129207519Y-83661015D01*
X129088985Y-83542481D01*
X128995853Y-83403100D01*
X128931703Y-83248228D01*
X128899000Y-83083816D01*
X128899000Y-82916184D01*
X128931703Y-82751772D01*
X128995853Y-82596900D01*
X129088985Y-82457519D01*
X129207519Y-82338985D01*
X129346900Y-82245853D01*
X129501772Y-82181703D01*
X129666184Y-82149000D01*
X129833816Y-82149000D01*
X129998228Y-82181703D01*
X129998228Y-82181703D01*
G37*
G36*
X137248228Y-82181703D02*
G01*
X137403100Y-82245853D01*
X137542481Y-82338985D01*
X137661015Y-82457519D01*
X137754147Y-82596900D01*
X137818297Y-82751772D01*
X137851000Y-82916184D01*
X137851000Y-83083816D01*
X137818297Y-83248228D01*
X137754147Y-83403100D01*
X137661015Y-83542481D01*
X137542481Y-83661015D01*
X137403100Y-83754147D01*
X137248228Y-83818297D01*
X137083816Y-83851000D01*
X136916184Y-83851000D01*
X136751772Y-83818297D01*
X136596900Y-83754147D01*
X136457519Y-83661015D01*
X136338985Y-83542481D01*
X136245853Y-83403100D01*
X136181703Y-83248228D01*
X136149000Y-83083816D01*
X136149000Y-82916184D01*
X136181703Y-82751772D01*
X136245853Y-82596900D01*
X136338985Y-82457519D01*
X136457519Y-82338985D01*
X136596900Y-82245853D01*
X136751772Y-82181703D01*
X136916184Y-82149000D01*
X137083816Y-82149000D01*
X137248228Y-82181703D01*
X137248228Y-82181703D01*
G37*
G36*
X129998228Y-79681703D02*
G01*
X130153100Y-79745853D01*
X130292481Y-79838985D01*
X130411015Y-79957519D01*
X130504147Y-80096900D01*
X130568297Y-80251772D01*
X130601000Y-80416184D01*
X130601000Y-80583816D01*
X130568297Y-80748228D01*
X130504147Y-80903100D01*
X130411015Y-81042481D01*
X130292481Y-81161015D01*
X130153100Y-81254147D01*
X129998228Y-81318297D01*
X129833816Y-81351000D01*
X129666184Y-81351000D01*
X129501772Y-81318297D01*
X129346900Y-81254147D01*
X129207519Y-81161015D01*
X129088985Y-81042481D01*
X128995853Y-80903100D01*
X128931703Y-80748228D01*
X128899000Y-80583816D01*
X128899000Y-80416184D01*
X128931703Y-80251772D01*
X128995853Y-80096900D01*
X129088985Y-79957519D01*
X129207519Y-79838985D01*
X129346900Y-79745853D01*
X129501772Y-79681703D01*
X129666184Y-79649000D01*
X129833816Y-79649000D01*
X129998228Y-79681703D01*
X129998228Y-79681703D01*
G37*
G36*
X137248228Y-79681703D02*
G01*
X137403100Y-79745853D01*
X137542481Y-79838985D01*
X137661015Y-79957519D01*
X137754147Y-80096900D01*
X137818297Y-80251772D01*
X137851000Y-80416184D01*
X137851000Y-80583816D01*
X137818297Y-80748228D01*
X137754147Y-80903100D01*
X137661015Y-81042481D01*
X137542481Y-81161015D01*
X137403100Y-81254147D01*
X137248228Y-81318297D01*
X137083816Y-81351000D01*
X136916184Y-81351000D01*
X136751772Y-81318297D01*
X136596900Y-81254147D01*
X136457519Y-81161015D01*
X136338985Y-81042481D01*
X136245853Y-80903100D01*
X136181703Y-80748228D01*
X136149000Y-80583816D01*
X136149000Y-80416184D01*
X136181703Y-80251772D01*
X136245853Y-80096900D01*
X136338985Y-79957519D01*
X136457519Y-79838985D01*
X136596900Y-79745853D01*
X136751772Y-79681703D01*
X136916184Y-79649000D01*
X137083816Y-79649000D01*
X137248228Y-79681703D01*
X137248228Y-79681703D01*
G37*
G36*
X122748228Y-78681703D02*
G01*
X122903100Y-78745853D01*
X123042481Y-78838985D01*
X123161015Y-78957519D01*
X123254147Y-79096900D01*
X123318297Y-79251772D01*
X123351000Y-79416184D01*
X123351000Y-79583816D01*
X123318297Y-79748228D01*
X123254147Y-79903100D01*
X123161015Y-80042481D01*
X123042481Y-80161015D01*
X122903100Y-80254147D01*
X122748228Y-80318297D01*
X122583816Y-80351000D01*
X122416184Y-80351000D01*
X122251772Y-80318297D01*
X122096900Y-80254147D01*
X121957519Y-80161015D01*
X121838985Y-80042481D01*
X121745853Y-79903100D01*
X121681703Y-79748228D01*
X121649000Y-79583816D01*
X121649000Y-79416184D01*
X121681703Y-79251772D01*
X121745853Y-79096900D01*
X121838985Y-78957519D01*
X121957519Y-78838985D01*
X122096900Y-78745853D01*
X122251772Y-78681703D01*
X122416184Y-78649000D01*
X122583816Y-78649000D01*
X122748228Y-78681703D01*
X122748228Y-78681703D01*
G37*
G36*
X181614903Y-76547075D02*
G01*
X181842571Y-76641378D01*
X182047466Y-76778285D01*
X182221715Y-76952534D01*
X182358622Y-77157429D01*
X182452925Y-77385097D01*
X182501000Y-77626787D01*
X182501000Y-77873213D01*
X182452925Y-78114903D01*
X182358622Y-78342571D01*
X182221715Y-78547466D01*
X182047466Y-78721715D01*
X181842571Y-78858622D01*
X181842570Y-78858623D01*
X181842569Y-78858623D01*
X181614903Y-78952925D01*
X181373214Y-79001000D01*
X181126786Y-79001000D01*
X180885097Y-78952925D01*
X180657431Y-78858623D01*
X180657430Y-78858623D01*
X180657429Y-78858622D01*
X180452534Y-78721715D01*
X180278285Y-78547466D01*
X180141378Y-78342571D01*
X180047075Y-78114903D01*
X179999000Y-77873213D01*
X179999000Y-77626787D01*
X180047075Y-77385097D01*
X180141378Y-77157429D01*
X180278285Y-76952534D01*
X180452534Y-76778285D01*
X180657429Y-76641378D01*
X180885097Y-76547075D01*
X181126786Y-76499000D01*
X181373214Y-76499000D01*
X181614903Y-76547075D01*
X181614903Y-76547075D01*
G37*
G36*
X152806564Y-76739389D02*
G01*
X152997833Y-76818615D01*
X152997835Y-76818616D01*
X153169973Y-76933635D01*
X153316365Y-77080027D01*
X153392143Y-77193436D01*
X153431385Y-77252167D01*
X153510611Y-77443436D01*
X153551000Y-77646484D01*
X153551000Y-77853516D01*
X153510611Y-78056564D01*
X153431385Y-78247833D01*
X153431384Y-78247835D01*
X153316365Y-78419973D01*
X153169973Y-78566365D01*
X152997835Y-78681384D01*
X152997834Y-78681385D01*
X152997833Y-78681385D01*
X152806564Y-78760611D01*
X152603516Y-78801000D01*
X152396484Y-78801000D01*
X152193436Y-78760611D01*
X152002167Y-78681385D01*
X152002166Y-78681385D01*
X152002165Y-78681384D01*
X151830027Y-78566365D01*
X151683635Y-78419973D01*
X151568616Y-78247835D01*
X151568615Y-78247833D01*
X151489389Y-78056564D01*
X151449000Y-77853516D01*
X151449000Y-77646484D01*
X151489389Y-77443436D01*
X151568615Y-77252167D01*
X151607858Y-77193436D01*
X151683635Y-77080027D01*
X151830027Y-76933635D01*
X152002165Y-76818616D01*
X152002167Y-76818615D01*
X152193436Y-76739389D01*
X152396484Y-76699000D01*
X152603516Y-76699000D01*
X152806564Y-76739389D01*
X152806564Y-76739389D01*
G37*
G36*
X113306564Y-76489389D02*
G01*
X113497833Y-76568615D01*
X113497835Y-76568616D01*
X113669973Y-76683635D01*
X113816365Y-76830027D01*
X113898222Y-76952534D01*
X113931385Y-77002167D01*
X114010611Y-77193436D01*
X114051000Y-77396484D01*
X114051000Y-77603516D01*
X114010611Y-77806564D01*
X113931385Y-77997833D01*
X113931384Y-77997835D01*
X113816365Y-78169973D01*
X113669973Y-78316365D01*
X113497835Y-78431384D01*
X113497834Y-78431385D01*
X113497833Y-78431385D01*
X113306564Y-78510611D01*
X113103516Y-78551000D01*
X112896484Y-78551000D01*
X112693436Y-78510611D01*
X112502167Y-78431385D01*
X112502166Y-78431385D01*
X112502165Y-78431384D01*
X112330027Y-78316365D01*
X112183635Y-78169973D01*
X112068616Y-77997835D01*
X112068615Y-77997833D01*
X111989389Y-77806564D01*
X111949000Y-77603516D01*
X111949000Y-77396484D01*
X111989389Y-77193436D01*
X112068615Y-77002167D01*
X112101779Y-76952534D01*
X112183635Y-76830027D01*
X112330027Y-76683635D01*
X112502165Y-76568616D01*
X112502167Y-76568615D01*
X112693436Y-76489389D01*
X112896484Y-76449000D01*
X113103516Y-76449000D01*
X113306564Y-76489389D01*
X113306564Y-76489389D01*
G37*
G36*
X144748228Y-74431703D02*
G01*
X144903100Y-74495853D01*
X145042481Y-74588985D01*
X145161015Y-74707519D01*
X145254147Y-74846900D01*
X145318297Y-75001772D01*
X145351000Y-75166184D01*
X145351000Y-75333816D01*
X145318297Y-75498228D01*
X145254147Y-75653100D01*
X145161015Y-75792481D01*
X145042481Y-75911015D01*
X144903100Y-76004147D01*
X144748228Y-76068297D01*
X144583816Y-76101000D01*
X144416184Y-76101000D01*
X144251772Y-76068297D01*
X144096900Y-76004147D01*
X143957519Y-75911015D01*
X143838985Y-75792481D01*
X143745853Y-75653100D01*
X143681703Y-75498228D01*
X143649000Y-75333816D01*
X143649000Y-75166184D01*
X143681703Y-75001772D01*
X143745853Y-74846900D01*
X143838985Y-74707519D01*
X143957519Y-74588985D01*
X144096900Y-74495853D01*
X144251772Y-74431703D01*
X144416184Y-74399000D01*
X144583816Y-74399000D01*
X144748228Y-74431703D01*
X144748228Y-74431703D01*
G37*
G36*
X182501000Y-74001000D02*
G01*
X179999000Y-74001000D01*
X179999000Y-71499000D01*
X182501000Y-71499000D01*
X182501000Y-74001000D01*
X182501000Y-74001000D01*
G37*
G36*
X153551000Y-73801000D02*
G01*
X151449000Y-73801000D01*
X151449000Y-71699000D01*
X153551000Y-71699000D01*
X153551000Y-73801000D01*
X153551000Y-73801000D01*
G37*
G36*
X114051000Y-73551000D02*
G01*
X111949000Y-73551000D01*
X111949000Y-71449000D01*
X114051000Y-71449000D01*
X114051000Y-73551000D01*
X114051000Y-73551000D01*
G37*
G36*
X131317303Y-71431013D02*
G01*
X131477722Y-71479676D01*
X131610386Y-71550586D01*
X131625558Y-71558696D01*
X131755139Y-71665041D01*
X131861484Y-71794622D01*
X131861485Y-71794624D01*
X131940504Y-71942458D01*
X131989167Y-72102877D01*
X132005597Y-72269700D01*
X131989167Y-72436523D01*
X131940504Y-72596942D01*
X131869594Y-72729606D01*
X131861484Y-72744778D01*
X131755139Y-72874359D01*
X131625558Y-72980704D01*
X131625556Y-72980705D01*
X131477722Y-73059724D01*
X131317303Y-73108387D01*
X131192284Y-73120700D01*
X131108676Y-73120700D01*
X130983657Y-73108387D01*
X130823238Y-73059724D01*
X130675404Y-72980705D01*
X130675402Y-72980704D01*
X130545821Y-72874359D01*
X130439476Y-72744778D01*
X130431366Y-72729606D01*
X130360456Y-72596942D01*
X130311793Y-72436523D01*
X130295363Y-72269700D01*
X130311793Y-72102877D01*
X130360456Y-71942458D01*
X130439475Y-71794624D01*
X130439476Y-71794622D01*
X130545821Y-71665041D01*
X130675402Y-71558696D01*
X130690574Y-71550586D01*
X130823238Y-71479676D01*
X130983657Y-71431013D01*
X131108676Y-71418700D01*
X131192284Y-71418700D01*
X131317303Y-71431013D01*
X131317303Y-71431013D01*
G37*
G36*
X138937303Y-71431013D02*
G01*
X139097722Y-71479676D01*
X139230386Y-71550586D01*
X139245558Y-71558696D01*
X139375139Y-71665041D01*
X139481484Y-71794622D01*
X139481485Y-71794624D01*
X139560504Y-71942458D01*
X139609167Y-72102877D01*
X139625597Y-72269700D01*
X139609167Y-72436523D01*
X139560504Y-72596942D01*
X139489594Y-72729606D01*
X139481484Y-72744778D01*
X139375139Y-72874359D01*
X139245558Y-72980704D01*
X139245556Y-72980705D01*
X139097722Y-73059724D01*
X138937303Y-73108387D01*
X138812284Y-73120700D01*
X138728676Y-73120700D01*
X138603657Y-73108387D01*
X138443238Y-73059724D01*
X138295404Y-72980705D01*
X138295402Y-72980704D01*
X138165821Y-72874359D01*
X138059476Y-72744778D01*
X138051366Y-72729606D01*
X137980456Y-72596942D01*
X137931793Y-72436523D01*
X137915363Y-72269700D01*
X137931793Y-72102877D01*
X137980456Y-71942458D01*
X138059475Y-71794624D01*
X138059476Y-71794622D01*
X138165821Y-71665041D01*
X138295402Y-71558696D01*
X138310574Y-71550586D01*
X138443238Y-71479676D01*
X138603657Y-71431013D01*
X138728676Y-71418700D01*
X138812284Y-71418700D01*
X138937303Y-71431013D01*
X138937303Y-71431013D01*
G37*
G36*
X144748228Y-69431703D02*
G01*
X144903100Y-69495853D01*
X145042481Y-69588985D01*
X145161015Y-69707519D01*
X145254147Y-69846900D01*
X145318297Y-70001772D01*
X145351000Y-70166184D01*
X145351000Y-70333816D01*
X145318297Y-70498228D01*
X145254147Y-70653100D01*
X145161015Y-70792481D01*
X145042481Y-70911015D01*
X144903100Y-71004147D01*
X144748228Y-71068297D01*
X144583816Y-71101000D01*
X144416184Y-71101000D01*
X144251772Y-71068297D01*
X144096900Y-71004147D01*
X143957519Y-70911015D01*
X143838985Y-70792481D01*
X143745853Y-70653100D01*
X143681703Y-70498228D01*
X143649000Y-70333816D01*
X143649000Y-70166184D01*
X143681703Y-70001772D01*
X143745853Y-69846900D01*
X143838985Y-69707519D01*
X143957519Y-69588985D01*
X144096900Y-69495853D01*
X144251772Y-69431703D01*
X144416184Y-69399000D01*
X144583816Y-69399000D01*
X144748228Y-69431703D01*
X144748228Y-69431703D01*
G37*
G36*
X138937303Y-68891013D02*
G01*
X139097722Y-68939676D01*
X139230386Y-69010586D01*
X139245558Y-69018696D01*
X139375139Y-69125041D01*
X139481484Y-69254622D01*
X139481485Y-69254624D01*
X139560504Y-69402458D01*
X139609167Y-69562877D01*
X139625597Y-69729700D01*
X139609167Y-69896523D01*
X139560504Y-70056942D01*
X139502113Y-70166184D01*
X139481484Y-70204778D01*
X139375139Y-70334359D01*
X139245558Y-70440704D01*
X139245556Y-70440705D01*
X139097722Y-70519724D01*
X138937303Y-70568387D01*
X138812284Y-70580700D01*
X138728676Y-70580700D01*
X138603657Y-70568387D01*
X138443238Y-70519724D01*
X138295404Y-70440705D01*
X138295402Y-70440704D01*
X138165821Y-70334359D01*
X138059476Y-70204778D01*
X138038847Y-70166184D01*
X137980456Y-70056942D01*
X137931793Y-69896523D01*
X137915363Y-69729700D01*
X137931793Y-69562877D01*
X137980456Y-69402458D01*
X138059475Y-69254624D01*
X138059476Y-69254622D01*
X138165821Y-69125041D01*
X138295402Y-69018696D01*
X138310574Y-69010586D01*
X138443238Y-68939676D01*
X138603657Y-68891013D01*
X138728676Y-68878700D01*
X138812284Y-68878700D01*
X138937303Y-68891013D01*
X138937303Y-68891013D01*
G37*
G36*
X131317303Y-68891013D02*
G01*
X131477722Y-68939676D01*
X131610386Y-69010586D01*
X131625558Y-69018696D01*
X131755139Y-69125041D01*
X131861484Y-69254622D01*
X131861485Y-69254624D01*
X131940504Y-69402458D01*
X131989167Y-69562877D01*
X132005597Y-69729700D01*
X131989167Y-69896523D01*
X131940504Y-70056942D01*
X131882113Y-70166184D01*
X131861484Y-70204778D01*
X131755139Y-70334359D01*
X131625558Y-70440704D01*
X131625556Y-70440705D01*
X131477722Y-70519724D01*
X131317303Y-70568387D01*
X131192284Y-70580700D01*
X131108676Y-70580700D01*
X130983657Y-70568387D01*
X130823238Y-70519724D01*
X130675404Y-70440705D01*
X130675402Y-70440704D01*
X130545821Y-70334359D01*
X130439476Y-70204778D01*
X130418847Y-70166184D01*
X130360456Y-70056942D01*
X130311793Y-69896523D01*
X130295363Y-69729700D01*
X130311793Y-69562877D01*
X130360456Y-69402458D01*
X130439475Y-69254624D01*
X130439476Y-69254622D01*
X130545821Y-69125041D01*
X130675402Y-69018696D01*
X130690574Y-69010586D01*
X130823238Y-68939676D01*
X130983657Y-68891013D01*
X131108676Y-68878700D01*
X131192284Y-68878700D01*
X131317303Y-68891013D01*
X131317303Y-68891013D01*
G37*
G36*
X118601303Y-68445613D02*
G01*
X118761722Y-68494276D01*
X118894386Y-68565186D01*
X118909558Y-68573296D01*
X119039139Y-68679641D01*
X119145484Y-68809222D01*
X119145485Y-68809224D01*
X119224504Y-68957058D01*
X119273167Y-69117477D01*
X119289597Y-69284300D01*
X119273167Y-69451123D01*
X119224504Y-69611542D01*
X119161347Y-69729700D01*
X119145484Y-69759378D01*
X119039139Y-69888959D01*
X118909558Y-69995304D01*
X118909556Y-69995305D01*
X118761722Y-70074324D01*
X118601303Y-70122987D01*
X118476284Y-70135300D01*
X118392676Y-70135300D01*
X118267657Y-70122987D01*
X118107238Y-70074324D01*
X117959404Y-69995305D01*
X117959402Y-69995304D01*
X117829821Y-69888959D01*
X117723476Y-69759378D01*
X117707613Y-69729700D01*
X117644456Y-69611542D01*
X117595793Y-69451123D01*
X117579363Y-69284300D01*
X117595793Y-69117477D01*
X117644456Y-68957058D01*
X117723475Y-68809224D01*
X117723476Y-68809222D01*
X117829821Y-68679641D01*
X117959402Y-68573296D01*
X117974574Y-68565186D01*
X118107238Y-68494276D01*
X118267657Y-68445613D01*
X118392676Y-68433300D01*
X118476284Y-68433300D01*
X118601303Y-68445613D01*
X118601303Y-68445613D01*
G37*
G36*
X185666823Y-66661313D02*
G01*
X185827242Y-66709976D01*
X185959906Y-66780886D01*
X185975078Y-66788996D01*
X186104659Y-66895341D01*
X186211004Y-67024922D01*
X186211005Y-67024924D01*
X186290024Y-67172758D01*
X186338687Y-67333177D01*
X186355117Y-67500000D01*
X186338687Y-67666823D01*
X186290024Y-67827242D01*
X186250757Y-67900705D01*
X186211004Y-67975078D01*
X186104659Y-68104659D01*
X185975078Y-68211004D01*
X185975076Y-68211005D01*
X185827242Y-68290024D01*
X185666823Y-68338687D01*
X185541804Y-68351000D01*
X185458196Y-68351000D01*
X185333177Y-68338687D01*
X185172758Y-68290024D01*
X185024924Y-68211005D01*
X185024922Y-68211004D01*
X184895341Y-68104659D01*
X184788996Y-67975078D01*
X184749243Y-67900705D01*
X184709976Y-67827242D01*
X184661313Y-67666823D01*
X184644883Y-67500000D01*
X184661313Y-67333177D01*
X184709976Y-67172758D01*
X184788995Y-67024924D01*
X184788996Y-67024922D01*
X184895341Y-66895341D01*
X185024922Y-66788996D01*
X185040094Y-66780886D01*
X185172758Y-66709976D01*
X185333177Y-66661313D01*
X185458196Y-66649000D01*
X185541804Y-66649000D01*
X185666823Y-66661313D01*
X185666823Y-66661313D01*
G37*
G36*
X138937303Y-66351013D02*
G01*
X139097722Y-66399676D01*
X139230386Y-66470586D01*
X139245558Y-66478696D01*
X139375139Y-66585041D01*
X139481484Y-66714622D01*
X139481485Y-66714624D01*
X139560504Y-66862458D01*
X139609167Y-67022877D01*
X139625597Y-67189700D01*
X139609167Y-67356523D01*
X139560504Y-67516942D01*
X139489594Y-67649606D01*
X139481484Y-67664778D01*
X139375139Y-67794359D01*
X139245558Y-67900704D01*
X139245556Y-67900705D01*
X139097722Y-67979724D01*
X138937303Y-68028387D01*
X138812284Y-68040700D01*
X138728676Y-68040700D01*
X138603657Y-68028387D01*
X138443238Y-67979724D01*
X138295404Y-67900705D01*
X138295402Y-67900704D01*
X138165821Y-67794359D01*
X138059476Y-67664778D01*
X138051366Y-67649606D01*
X137980456Y-67516942D01*
X137931793Y-67356523D01*
X137915363Y-67189700D01*
X137931793Y-67022877D01*
X137980456Y-66862458D01*
X138059475Y-66714624D01*
X138059476Y-66714622D01*
X138165821Y-66585041D01*
X138295402Y-66478696D01*
X138310574Y-66470586D01*
X138443238Y-66399676D01*
X138603657Y-66351013D01*
X138728676Y-66338700D01*
X138812284Y-66338700D01*
X138937303Y-66351013D01*
X138937303Y-66351013D01*
G37*
G36*
X131317303Y-66351013D02*
G01*
X131477722Y-66399676D01*
X131610386Y-66470586D01*
X131625558Y-66478696D01*
X131755139Y-66585041D01*
X131861484Y-66714622D01*
X131861485Y-66714624D01*
X131940504Y-66862458D01*
X131989167Y-67022877D01*
X132005597Y-67189700D01*
X131989167Y-67356523D01*
X131940504Y-67516942D01*
X131869594Y-67649606D01*
X131861484Y-67664778D01*
X131755139Y-67794359D01*
X131625558Y-67900704D01*
X131625556Y-67900705D01*
X131477722Y-67979724D01*
X131317303Y-68028387D01*
X131192284Y-68040700D01*
X131108676Y-68040700D01*
X130983657Y-68028387D01*
X130823238Y-67979724D01*
X130675404Y-67900705D01*
X130675402Y-67900704D01*
X130545821Y-67794359D01*
X130439476Y-67664778D01*
X130431366Y-67649606D01*
X130360456Y-67516942D01*
X130311793Y-67356523D01*
X130295363Y-67189700D01*
X130311793Y-67022877D01*
X130360456Y-66862458D01*
X130439475Y-66714624D01*
X130439476Y-66714622D01*
X130545821Y-66585041D01*
X130675402Y-66478696D01*
X130690574Y-66470586D01*
X130823238Y-66399676D01*
X130983657Y-66351013D01*
X131108676Y-66338700D01*
X131192284Y-66338700D01*
X131317303Y-66351013D01*
X131317303Y-66351013D01*
G37*
G36*
X154998228Y-65181703D02*
G01*
X155153100Y-65245853D01*
X155292481Y-65338985D01*
X155411015Y-65457519D01*
X155504147Y-65596900D01*
X155568297Y-65751772D01*
X155601000Y-65916184D01*
X155601000Y-66083816D01*
X155568297Y-66248228D01*
X155504147Y-66403100D01*
X155411015Y-66542481D01*
X155292481Y-66661015D01*
X155153100Y-66754147D01*
X154998228Y-66818297D01*
X154833816Y-66851000D01*
X154666184Y-66851000D01*
X154501772Y-66818297D01*
X154346900Y-66754147D01*
X154207519Y-66661015D01*
X154088985Y-66542481D01*
X153995853Y-66403100D01*
X153931703Y-66248228D01*
X153899000Y-66083816D01*
X153899000Y-65916184D01*
X153931703Y-65751772D01*
X153995853Y-65596900D01*
X154088985Y-65457519D01*
X154207519Y-65338985D01*
X154346900Y-65245853D01*
X154501772Y-65181703D01*
X154666184Y-65149000D01*
X154833816Y-65149000D01*
X154998228Y-65181703D01*
X154998228Y-65181703D01*
G37*
G36*
X144756823Y-65161313D02*
G01*
X144917242Y-65209976D01*
X145049906Y-65280886D01*
X145065078Y-65288996D01*
X145194659Y-65395341D01*
X145301004Y-65524922D01*
X145301005Y-65524924D01*
X145380024Y-65672758D01*
X145428687Y-65833177D01*
X145445117Y-66000000D01*
X145428687Y-66166823D01*
X145380024Y-66327242D01*
X145339477Y-66403100D01*
X145301004Y-66475078D01*
X145194659Y-66604659D01*
X145065078Y-66711004D01*
X145065076Y-66711005D01*
X144917242Y-66790024D01*
X144756823Y-66838687D01*
X144631804Y-66851000D01*
X144548196Y-66851000D01*
X144423177Y-66838687D01*
X144262758Y-66790024D01*
X144114924Y-66711005D01*
X144114922Y-66711004D01*
X143985341Y-66604659D01*
X143878996Y-66475078D01*
X143840523Y-66403100D01*
X143799976Y-66327242D01*
X143751313Y-66166823D01*
X143734883Y-66000000D01*
X143751313Y-65833177D01*
X143799976Y-65672758D01*
X143878995Y-65524924D01*
X143878996Y-65524922D01*
X143985341Y-65395341D01*
X144114922Y-65288996D01*
X144130094Y-65280886D01*
X144262758Y-65209976D01*
X144423177Y-65161313D01*
X144548196Y-65149000D01*
X144631804Y-65149000D01*
X144756823Y-65161313D01*
X144756823Y-65161313D01*
G37*
G36*
X138937303Y-63811013D02*
G01*
X139097722Y-63859676D01*
X139230386Y-63930586D01*
X139245558Y-63938696D01*
X139375139Y-64045041D01*
X139481484Y-64174622D01*
X139481485Y-64174624D01*
X139560504Y-64322458D01*
X139609167Y-64482877D01*
X139625597Y-64649700D01*
X139609167Y-64816523D01*
X139560504Y-64976942D01*
X139489594Y-65109606D01*
X139481484Y-65124778D01*
X139375139Y-65254359D01*
X139245558Y-65360704D01*
X139245556Y-65360705D01*
X139097722Y-65439724D01*
X138937303Y-65488387D01*
X138812284Y-65500700D01*
X138728676Y-65500700D01*
X138603657Y-65488387D01*
X138443238Y-65439724D01*
X138295404Y-65360705D01*
X138295402Y-65360704D01*
X138165821Y-65254359D01*
X138059476Y-65124778D01*
X138051366Y-65109606D01*
X137980456Y-64976942D01*
X137931793Y-64816523D01*
X137915363Y-64649700D01*
X137931793Y-64482877D01*
X137980456Y-64322458D01*
X138059475Y-64174624D01*
X138059476Y-64174622D01*
X138165821Y-64045041D01*
X138295402Y-63938696D01*
X138310574Y-63930586D01*
X138443238Y-63859676D01*
X138603657Y-63811013D01*
X138728676Y-63798700D01*
X138812284Y-63798700D01*
X138937303Y-63811013D01*
X138937303Y-63811013D01*
G37*
G36*
X132001480Y-65500700D02*
G01*
X130299480Y-65500700D01*
X130299480Y-63798700D01*
X132001480Y-63798700D01*
X132001480Y-65500700D01*
X132001480Y-65500700D01*
G37*
G36*
X124748228Y-63681703D02*
G01*
X124903100Y-63745853D01*
X125042481Y-63838985D01*
X125161015Y-63957519D01*
X125254147Y-64096900D01*
X125318297Y-64251772D01*
X125351000Y-64416184D01*
X125351000Y-64583816D01*
X125318297Y-64748228D01*
X125254147Y-64903100D01*
X125161015Y-65042481D01*
X125042481Y-65161015D01*
X124903100Y-65254147D01*
X124748228Y-65318297D01*
X124583816Y-65351000D01*
X124416184Y-65351000D01*
X124251772Y-65318297D01*
X124096900Y-65254147D01*
X123957519Y-65161015D01*
X123838985Y-65042481D01*
X123745853Y-64903100D01*
X123681703Y-64748228D01*
X123649000Y-64583816D01*
X123649000Y-64416184D01*
X123681703Y-64251772D01*
X123745853Y-64096900D01*
X123838985Y-63957519D01*
X123957519Y-63838985D01*
X124096900Y-63745853D01*
X124251772Y-63681703D01*
X124416184Y-63649000D01*
X124583816Y-63649000D01*
X124748228Y-63681703D01*
X124748228Y-63681703D01*
G37*
G36*
X181401000Y-64401000D02*
G01*
X179599000Y-64401000D01*
X179599000Y-62599000D01*
X181401000Y-62599000D01*
X181401000Y-64401000D01*
X181401000Y-64401000D01*
G37*
G36*
X124748228Y-61181703D02*
G01*
X124903100Y-61245853D01*
X125042481Y-61338985D01*
X125161015Y-61457519D01*
X125254147Y-61596900D01*
X125318297Y-61751772D01*
X125351000Y-61916184D01*
X125351000Y-62083816D01*
X125318297Y-62248228D01*
X125254147Y-62403100D01*
X125161015Y-62542481D01*
X125042481Y-62661015D01*
X124903100Y-62754147D01*
X124748228Y-62818297D01*
X124583816Y-62851000D01*
X124416184Y-62851000D01*
X124251772Y-62818297D01*
X124096900Y-62754147D01*
X123957519Y-62661015D01*
X123838985Y-62542481D01*
X123745853Y-62403100D01*
X123681703Y-62248228D01*
X123649000Y-62083816D01*
X123649000Y-61916184D01*
X123681703Y-61751772D01*
X123745853Y-61596900D01*
X123838985Y-61457519D01*
X123957519Y-61338985D01*
X124096900Y-61245853D01*
X124251772Y-61181703D01*
X124416184Y-61149000D01*
X124583816Y-61149000D01*
X124748228Y-61181703D01*
X124748228Y-61181703D01*
G37*
G36*
X180610442Y-60065518D02*
G01*
X180676627Y-60072037D01*
X180846466Y-60123557D01*
X181002991Y-60207222D01*
X181038729Y-60236552D01*
X181140186Y-60319814D01*
X181223448Y-60421271D01*
X181252778Y-60457009D01*
X181336443Y-60613534D01*
X181387963Y-60783373D01*
X181405359Y-60960000D01*
X181387963Y-61136627D01*
X181336443Y-61306466D01*
X181252778Y-61462991D01*
X181223448Y-61498729D01*
X181140186Y-61600186D01*
X181038729Y-61683448D01*
X181002991Y-61712778D01*
X180846466Y-61796443D01*
X180676627Y-61847963D01*
X180610443Y-61854481D01*
X180544260Y-61861000D01*
X180455740Y-61861000D01*
X180389557Y-61854481D01*
X180323373Y-61847963D01*
X180153534Y-61796443D01*
X179997009Y-61712778D01*
X179961271Y-61683448D01*
X179859814Y-61600186D01*
X179776552Y-61498729D01*
X179747222Y-61462991D01*
X179663557Y-61306466D01*
X179612037Y-61136627D01*
X179594641Y-60960000D01*
X179612037Y-60783373D01*
X179663557Y-60613534D01*
X179747222Y-60457009D01*
X179776552Y-60421271D01*
X179859814Y-60319814D01*
X179961271Y-60236552D01*
X179997009Y-60207222D01*
X180153534Y-60123557D01*
X180323373Y-60072037D01*
X180389558Y-60065518D01*
X180455740Y-60059000D01*
X180544260Y-60059000D01*
X180610442Y-60065518D01*
X180610442Y-60065518D01*
G37*
G36*
X118682708Y-58306003D02*
G01*
X118837580Y-58370153D01*
X118976961Y-58463285D01*
X119095495Y-58581819D01*
X119188627Y-58721200D01*
X119252777Y-58876072D01*
X119285480Y-59040484D01*
X119285480Y-59208116D01*
X119252777Y-59372528D01*
X119188627Y-59527400D01*
X119095495Y-59666781D01*
X118976961Y-59785315D01*
X118837580Y-59878447D01*
X118682708Y-59942597D01*
X118518296Y-59975300D01*
X118350664Y-59975300D01*
X118186252Y-59942597D01*
X118031380Y-59878447D01*
X117891999Y-59785315D01*
X117773465Y-59666781D01*
X117680333Y-59527400D01*
X117616183Y-59372528D01*
X117583480Y-59208116D01*
X117583480Y-59040484D01*
X117616183Y-58876072D01*
X117680333Y-58721200D01*
X117773465Y-58581819D01*
X117891999Y-58463285D01*
X118031380Y-58370153D01*
X118186252Y-58306003D01*
X118350664Y-58273300D01*
X118518296Y-58273300D01*
X118682708Y-58306003D01*
X118682708Y-58306003D01*
G37*
G36*
X185748228Y-56521703D02*
G01*
X185903100Y-56585853D01*
X186042481Y-56678985D01*
X186161015Y-56797519D01*
X186254147Y-56936900D01*
X186318297Y-57091772D01*
X186351000Y-57256184D01*
X186351000Y-57423816D01*
X186318297Y-57588228D01*
X186254147Y-57743100D01*
X186161015Y-57882481D01*
X186042481Y-58001015D01*
X185903100Y-58094147D01*
X185748228Y-58158297D01*
X185583816Y-58191000D01*
X185416184Y-58191000D01*
X185251772Y-58158297D01*
X185096900Y-58094147D01*
X184957519Y-58001015D01*
X184838985Y-57882481D01*
X184745853Y-57743100D01*
X184681703Y-57588228D01*
X184649000Y-57423816D01*
X184649000Y-57256184D01*
X184681703Y-57091772D01*
X184745853Y-56936900D01*
X184838985Y-56797519D01*
X184957519Y-56678985D01*
X185096900Y-56585853D01*
X185251772Y-56521703D01*
X185416184Y-56489000D01*
X185583816Y-56489000D01*
X185748228Y-56521703D01*
X185748228Y-56521703D01*
G37*
G36*
X168719271Y-52110103D02*
G01*
X168775635Y-52115654D01*
X168992600Y-52181470D01*
X168992602Y-52181471D01*
X169192555Y-52288347D01*
X169367818Y-52432182D01*
X169511653Y-52607445D01*
X169618529Y-52807398D01*
X169684346Y-53024366D01*
X169706569Y-53250000D01*
X169684346Y-53475634D01*
X169618529Y-53692602D01*
X169511653Y-53892555D01*
X169367818Y-54067818D01*
X169192555Y-54211653D01*
X168992602Y-54318529D01*
X168992600Y-54318530D01*
X168775635Y-54384346D01*
X168719271Y-54389897D01*
X168606545Y-54401000D01*
X168493455Y-54401000D01*
X168380729Y-54389897D01*
X168324365Y-54384346D01*
X168107400Y-54318530D01*
X168107398Y-54318529D01*
X167907445Y-54211653D01*
X167732182Y-54067818D01*
X167588347Y-53892555D01*
X167481471Y-53692602D01*
X167415654Y-53475634D01*
X167393431Y-53250000D01*
X167415654Y-53024366D01*
X167481471Y-52807398D01*
X167588347Y-52607445D01*
X167732182Y-52432182D01*
X167907445Y-52288347D01*
X168107398Y-52181471D01*
X168107400Y-52181470D01*
X168324365Y-52115654D01*
X168380729Y-52110103D01*
X168493455Y-52099000D01*
X168606545Y-52099000D01*
X168719271Y-52110103D01*
X168719271Y-52110103D01*
G37*
G36*
X182401000Y-54401000D02*
G01*
X180099000Y-54401000D01*
X180099000Y-52099000D01*
X182401000Y-52099000D01*
X182401000Y-54401000D01*
X182401000Y-54401000D01*
G37*
G36*
X194776693Y-48279529D02*
G01*
X194864903Y-48297075D01*
X195092571Y-48391378D01*
X195297466Y-48528285D01*
X195471715Y-48702534D01*
X195512022Y-48762858D01*
X195608623Y-48907431D01*
X195702925Y-49135097D01*
X195751000Y-49376786D01*
X195751000Y-49623214D01*
X195731654Y-49720471D01*
X195702925Y-49864903D01*
X195608622Y-50092571D01*
X195471715Y-50297466D01*
X195297466Y-50471715D01*
X195092571Y-50608622D01*
X195092570Y-50608623D01*
X195092569Y-50608623D01*
X194864903Y-50702925D01*
X194623214Y-50751000D01*
X194376786Y-50751000D01*
X194135097Y-50702925D01*
X193907431Y-50608623D01*
X193907430Y-50608623D01*
X193907429Y-50608622D01*
X193702534Y-50471715D01*
X193528285Y-50297466D01*
X193391378Y-50092571D01*
X193297075Y-49864903D01*
X193268346Y-49720471D01*
X193249000Y-49623214D01*
X193249000Y-49376786D01*
X193297075Y-49135097D01*
X193391377Y-48907431D01*
X193487978Y-48762858D01*
X193528285Y-48702534D01*
X193702534Y-48528285D01*
X193907429Y-48391378D01*
X194135097Y-48297075D01*
X194223307Y-48279529D01*
X194376786Y-48249000D01*
X194623214Y-48249000D01*
X194776693Y-48279529D01*
X194776693Y-48279529D01*
G37*
G36*
X153987142Y-48218242D02*
G01*
X154135101Y-48279529D01*
X154268255Y-48368499D01*
X154381501Y-48481745D01*
X154470471Y-48614899D01*
X154531758Y-48762858D01*
X154563000Y-48919925D01*
X154563000Y-49080075D01*
X154531758Y-49237142D01*
X154470471Y-49385101D01*
X154381501Y-49518255D01*
X154268255Y-49631501D01*
X154135101Y-49720471D01*
X153987142Y-49781758D01*
X153830075Y-49813000D01*
X153669925Y-49813000D01*
X153512858Y-49781758D01*
X153364899Y-49720471D01*
X153231745Y-49631501D01*
X153118499Y-49518255D01*
X153029529Y-49385101D01*
X152968242Y-49237142D01*
X152937000Y-49080075D01*
X152937000Y-48919925D01*
X152968242Y-48762858D01*
X153029529Y-48614899D01*
X153118499Y-48481745D01*
X153231745Y-48368499D01*
X153364899Y-48279529D01*
X153512858Y-48218242D01*
X153669925Y-48187000D01*
X153830075Y-48187000D01*
X153987142Y-48218242D01*
X153987142Y-48218242D01*
G37*
G36*
X128563000Y-49813000D02*
G01*
X126937000Y-49813000D01*
X126937000Y-48187000D01*
X128563000Y-48187000D01*
X128563000Y-49813000D01*
X128563000Y-49813000D01*
G37*
G36*
X188001008Y-37967590D02*
G01*
X188496658Y-38066181D01*
X189270228Y-38386605D01*
X189310044Y-38403097D01*
X189430440Y-38452967D01*
X190270822Y-39014492D01*
X190985508Y-39729178D01*
X191488357Y-40481745D01*
X191547034Y-40569562D01*
X191613395Y-40729772D01*
X191933819Y-41503342D01*
X192002574Y-41849000D01*
X192131000Y-42494639D01*
X192131000Y-43505361D01*
X192032410Y-44001008D01*
X191933819Y-44496658D01*
X191547033Y-45430440D01*
X190985508Y-46270822D01*
X190270822Y-46985508D01*
X189430440Y-47547033D01*
X188496658Y-47933819D01*
X188001008Y-48032410D01*
X187505361Y-48131000D01*
X186494639Y-48131000D01*
X185998991Y-48032409D01*
X185503342Y-47933819D01*
X184569560Y-47547033D01*
X183729178Y-46985508D01*
X183014492Y-46270822D01*
X182452967Y-45430440D01*
X182066181Y-44496658D01*
X181967590Y-44001008D01*
X181869000Y-43505361D01*
X181869000Y-42494639D01*
X181997426Y-41849000D01*
X182066181Y-41503342D01*
X182386605Y-40729772D01*
X182452966Y-40569562D01*
X182511643Y-40481745D01*
X183014492Y-39729178D01*
X183729178Y-39014492D01*
X184569560Y-38452967D01*
X184689957Y-38403097D01*
X184729772Y-38386605D01*
X185503342Y-38066181D01*
X185998991Y-37967591D01*
X186494639Y-37869000D01*
X187505361Y-37869000D01*
X188001008Y-37967590D01*
X188001008Y-37967590D01*
G37*
G36*
X114001008Y-37967590D02*
G01*
X114496658Y-38066181D01*
X115270228Y-38386605D01*
X115310044Y-38403097D01*
X115430440Y-38452967D01*
X116270822Y-39014492D01*
X116985508Y-39729178D01*
X117488357Y-40481745D01*
X117547034Y-40569562D01*
X117613395Y-40729772D01*
X117933819Y-41503342D01*
X118002574Y-41849000D01*
X118131000Y-42494639D01*
X118131000Y-43505361D01*
X118032410Y-44001008D01*
X117933819Y-44496658D01*
X117547033Y-45430440D01*
X116985508Y-46270822D01*
X116270822Y-46985508D01*
X115430440Y-47547033D01*
X114496658Y-47933819D01*
X114001008Y-48032410D01*
X113505361Y-48131000D01*
X112494639Y-48131000D01*
X111998991Y-48032409D01*
X111503342Y-47933819D01*
X110569560Y-47547033D01*
X109729178Y-46985508D01*
X109014492Y-46270822D01*
X108452967Y-45430440D01*
X108066181Y-44496658D01*
X107967590Y-44001008D01*
X107869000Y-43505361D01*
X107869000Y-42494639D01*
X107997426Y-41849000D01*
X108066181Y-41503342D01*
X108386605Y-40729772D01*
X108452966Y-40569562D01*
X108511643Y-40481745D01*
X109014492Y-39729178D01*
X109729178Y-39014492D01*
X110569560Y-38452967D01*
X110689957Y-38403097D01*
X110729772Y-38386605D01*
X111503342Y-38066181D01*
X111998991Y-37967591D01*
X112494639Y-37869000D01*
X113505361Y-37869000D01*
X114001008Y-37967590D01*
X114001008Y-37967590D01*
G37*
G36*
X174826823Y-46161313D02*
G01*
X174987242Y-46209976D01*
X175054361Y-46245852D01*
X175135078Y-46288996D01*
X175264659Y-46395341D01*
X175371004Y-46524922D01*
X175371005Y-46524924D01*
X175450024Y-46672758D01*
X175498687Y-46833177D01*
X175515117Y-47000000D01*
X175498687Y-47166823D01*
X175450024Y-47327242D01*
X175409477Y-47403100D01*
X175371004Y-47475078D01*
X175264659Y-47604659D01*
X175135078Y-47711004D01*
X175135076Y-47711005D01*
X174987242Y-47790024D01*
X174826823Y-47838687D01*
X174701804Y-47851000D01*
X174618196Y-47851000D01*
X174493177Y-47838687D01*
X174332758Y-47790024D01*
X174184924Y-47711005D01*
X174184922Y-47711004D01*
X174055341Y-47604659D01*
X173948996Y-47475078D01*
X173910523Y-47403100D01*
X173869976Y-47327242D01*
X173821313Y-47166823D01*
X173804883Y-47000000D01*
X173821313Y-46833177D01*
X173869976Y-46672758D01*
X173948995Y-46524924D01*
X173948996Y-46524922D01*
X174055341Y-46395341D01*
X174184922Y-46288996D01*
X174265639Y-46245852D01*
X174332758Y-46209976D01*
X174493177Y-46161313D01*
X174618196Y-46149000D01*
X174701804Y-46149000D01*
X174826823Y-46161313D01*
X174826823Y-46161313D01*
G37*
G36*
X164748228Y-46181703D02*
G01*
X164903100Y-46245853D01*
X165042481Y-46338985D01*
X165161015Y-46457519D01*
X165254147Y-46596900D01*
X165318297Y-46751772D01*
X165351000Y-46916184D01*
X165351000Y-47083816D01*
X165318297Y-47248228D01*
X165254147Y-47403100D01*
X165161015Y-47542481D01*
X165042481Y-47661015D01*
X164903100Y-47754147D01*
X164748228Y-47818297D01*
X164583816Y-47851000D01*
X164416184Y-47851000D01*
X164251772Y-47818297D01*
X164096900Y-47754147D01*
X163957519Y-47661015D01*
X163838985Y-47542481D01*
X163745853Y-47403100D01*
X163681703Y-47248228D01*
X163649000Y-47083816D01*
X163649000Y-46916184D01*
X163681703Y-46751772D01*
X163745853Y-46596900D01*
X163838985Y-46457519D01*
X163957519Y-46338985D01*
X164096900Y-46245853D01*
X164251772Y-46181703D01*
X164416184Y-46149000D01*
X164583816Y-46149000D01*
X164748228Y-46181703D01*
X164748228Y-46181703D01*
G37*
G36*
X171651000Y-43651000D02*
G01*
X169849000Y-43651000D01*
X169849000Y-41849000D01*
X171651000Y-41849000D01*
X171651000Y-43651000D01*
X171651000Y-43651000D01*
G37*
G36*
X168320443Y-41855519D02*
G01*
X168386627Y-41862037D01*
X168556466Y-41913557D01*
X168712991Y-41997222D01*
X168748729Y-42026552D01*
X168850186Y-42109814D01*
X168933448Y-42211271D01*
X168962778Y-42247009D01*
X169046443Y-42403534D01*
X169097963Y-42573373D01*
X169115359Y-42750000D01*
X169097963Y-42926627D01*
X169046443Y-43096466D01*
X168962778Y-43252991D01*
X168933448Y-43288729D01*
X168850186Y-43390186D01*
X168748729Y-43473448D01*
X168712991Y-43502778D01*
X168556466Y-43586443D01*
X168386627Y-43637963D01*
X168320443Y-43644481D01*
X168254260Y-43651000D01*
X168165740Y-43651000D01*
X168099557Y-43644481D01*
X168033373Y-43637963D01*
X167863534Y-43586443D01*
X167707009Y-43502778D01*
X167671271Y-43473448D01*
X167569814Y-43390186D01*
X167486552Y-43288729D01*
X167457222Y-43252991D01*
X167373557Y-43096466D01*
X167322037Y-42926627D01*
X167304641Y-42750000D01*
X167322037Y-42573373D01*
X167373557Y-42403534D01*
X167457222Y-42247009D01*
X167486552Y-42211271D01*
X167569814Y-42109814D01*
X167671271Y-42026552D01*
X167707009Y-41997222D01*
X167863534Y-41913557D01*
X168033373Y-41862037D01*
X168099557Y-41855519D01*
X168165740Y-41849000D01*
X168254260Y-41849000D01*
X168320443Y-41855519D01*
X168320443Y-41855519D01*
G37*
G36*
X127987142Y-40218242D02*
G01*
X128135101Y-40279529D01*
X128268255Y-40368499D01*
X128381501Y-40481745D01*
X128470471Y-40614899D01*
X128531758Y-40762858D01*
X128563000Y-40919925D01*
X128563000Y-41080075D01*
X128531758Y-41237142D01*
X128470471Y-41385101D01*
X128381501Y-41518255D01*
X128268255Y-41631501D01*
X128135101Y-41720471D01*
X127987142Y-41781758D01*
X127830075Y-41813000D01*
X127669925Y-41813000D01*
X127512858Y-41781758D01*
X127364899Y-41720471D01*
X127231745Y-41631501D01*
X127118499Y-41518255D01*
X127029529Y-41385101D01*
X126968242Y-41237142D01*
X126937000Y-41080075D01*
X126937000Y-40919925D01*
X126968242Y-40762858D01*
X127029529Y-40614899D01*
X127118499Y-40481745D01*
X127231745Y-40368499D01*
X127364899Y-40279529D01*
X127512858Y-40218242D01*
X127669925Y-40187000D01*
X127830075Y-40187000D01*
X127987142Y-40218242D01*
X127987142Y-40218242D01*
G37*
G36*
X153987142Y-40218242D02*
G01*
X154135101Y-40279529D01*
X154268255Y-40368499D01*
X154381501Y-40481745D01*
X154470471Y-40614899D01*
X154531758Y-40762858D01*
X154563000Y-40919925D01*
X154563000Y-41080075D01*
X154531758Y-41237142D01*
X154470471Y-41385101D01*
X154381501Y-41518255D01*
X154268255Y-41631501D01*
X154135101Y-41720471D01*
X153987142Y-41781758D01*
X153830075Y-41813000D01*
X153669925Y-41813000D01*
X153512858Y-41781758D01*
X153364899Y-41720471D01*
X153231745Y-41631501D01*
X153118499Y-41518255D01*
X153029529Y-41385101D01*
X152968242Y-41237142D01*
X152937000Y-41080075D01*
X152937000Y-40919925D01*
X152968242Y-40762858D01*
X153029529Y-40614899D01*
X153118499Y-40481745D01*
X153231745Y-40368499D01*
X153364899Y-40279529D01*
X153512858Y-40218242D01*
X153669925Y-40187000D01*
X153830075Y-40187000D01*
X153987142Y-40218242D01*
X153987142Y-40218242D01*
G37*
G36*
X174826823Y-37161313D02*
G01*
X174987242Y-37209976D01*
X175054361Y-37245852D01*
X175135078Y-37288996D01*
X175264659Y-37395341D01*
X175371004Y-37524922D01*
X175371005Y-37524924D01*
X175450024Y-37672758D01*
X175498687Y-37833177D01*
X175515117Y-38000000D01*
X175498687Y-38166823D01*
X175450024Y-38327242D01*
X175379114Y-38459906D01*
X175371004Y-38475078D01*
X175264659Y-38604659D01*
X175135078Y-38711004D01*
X175135076Y-38711005D01*
X174987242Y-38790024D01*
X174826823Y-38838687D01*
X174701804Y-38851000D01*
X174618196Y-38851000D01*
X174493177Y-38838687D01*
X174332758Y-38790024D01*
X174184924Y-38711005D01*
X174184922Y-38711004D01*
X174055341Y-38604659D01*
X173948996Y-38475078D01*
X173940886Y-38459906D01*
X173869976Y-38327242D01*
X173821313Y-38166823D01*
X173804883Y-38000000D01*
X173821313Y-37833177D01*
X173869976Y-37672758D01*
X173948995Y-37524924D01*
X173948996Y-37524922D01*
X174055341Y-37395341D01*
X174184922Y-37288996D01*
X174265639Y-37245852D01*
X174332758Y-37209976D01*
X174493177Y-37161313D01*
X174618196Y-37149000D01*
X174701804Y-37149000D01*
X174826823Y-37161313D01*
X174826823Y-37161313D01*
G37*
G36*
X164748228Y-37181703D02*
G01*
X164903100Y-37245853D01*
X165042481Y-37338985D01*
X165161015Y-37457519D01*
X165254147Y-37596900D01*
X165318297Y-37751772D01*
X165351000Y-37916184D01*
X165351000Y-38083816D01*
X165318297Y-38248228D01*
X165254147Y-38403100D01*
X165161015Y-38542481D01*
X165042481Y-38661015D01*
X164903100Y-38754147D01*
X164748228Y-38818297D01*
X164583816Y-38851000D01*
X164416184Y-38851000D01*
X164251772Y-38818297D01*
X164096900Y-38754147D01*
X163957519Y-38661015D01*
X163838985Y-38542481D01*
X163745853Y-38403100D01*
X163681703Y-38248228D01*
X163649000Y-38083816D01*
X163649000Y-37916184D01*
X163681703Y-37751772D01*
X163745853Y-37596900D01*
X163838985Y-37457519D01*
X163957519Y-37338985D01*
X164096900Y-37245853D01*
X164251772Y-37181703D01*
X164416184Y-37149000D01*
X164583816Y-37149000D01*
X164748228Y-37181703D01*
X164748228Y-37181703D01*
G37*
G36*
X171651000Y-34651000D02*
G01*
X169849000Y-34651000D01*
X169849000Y-32849000D01*
X171651000Y-32849000D01*
X171651000Y-34651000D01*
X171651000Y-34651000D01*
G37*
G36*
X168320443Y-32855519D02*
G01*
X168386627Y-32862037D01*
X168556466Y-32913557D01*
X168712991Y-32997222D01*
X168748729Y-33026552D01*
X168850186Y-33109814D01*
X168933448Y-33211271D01*
X168962778Y-33247009D01*
X169046443Y-33403534D01*
X169097963Y-33573373D01*
X169115359Y-33750000D01*
X169097963Y-33926627D01*
X169046443Y-34096466D01*
X168962778Y-34252991D01*
X168933448Y-34288729D01*
X168850186Y-34390186D01*
X168748729Y-34473448D01*
X168712991Y-34502778D01*
X168556466Y-34586443D01*
X168386627Y-34637963D01*
X168320443Y-34644481D01*
X168254260Y-34651000D01*
X168165740Y-34651000D01*
X168099557Y-34644481D01*
X168033373Y-34637963D01*
X167863534Y-34586443D01*
X167707009Y-34502778D01*
X167671271Y-34473448D01*
X167569814Y-34390186D01*
X167486552Y-34288729D01*
X167457222Y-34252991D01*
X167373557Y-34096466D01*
X167322037Y-33926627D01*
X167304641Y-33750000D01*
X167322037Y-33573373D01*
X167373557Y-33403534D01*
X167457222Y-33247009D01*
X167486552Y-33211271D01*
X167569814Y-33109814D01*
X167671271Y-33026552D01*
X167707009Y-32997222D01*
X167863534Y-32913557D01*
X168033373Y-32862037D01*
X168099557Y-32855519D01*
X168165740Y-32849000D01*
X168254260Y-32849000D01*
X168320443Y-32855519D01*
X168320443Y-32855519D01*
G37*
M02*
