G04 #@! TF.GenerationSoftware,KiCad,Pcbnew,(5.1.2)-1*
G04 #@! TF.CreationDate,2019-06-18T22:03:50-03:00*
G04 #@! TF.ProjectId,Boost,426f6f73-742e-46b6-9963-61645f706362,rev?*
G04 #@! TF.SameCoordinates,Original*
G04 #@! TF.FileFunction,Copper,L2,Bot*
G04 #@! TF.FilePolarity,Positive*
%FSLAX46Y46*%
G04 Gerber Fmt 4.6, Leading zero omitted, Abs format (unit mm)*
G04 Created by KiCad (PCBNEW (5.1.2)-1) date 2019-06-18 22:03:50*
%MOMM*%
%LPD*%
G04 APERTURE LIST*
%ADD10C,0.120000*%
%ADD11C,1.524000*%
%ADD12R,1.524000X1.524000*%
%ADD13C,10.160000*%
%ADD14C,2.000000*%
%ADD15R,2.000000X2.000000*%
%ADD16C,1.600000*%
%ADD17C,2.400000*%
%ADD18R,2.400000X2.400000*%
%ADD19O,1.600000X1.600000*%
%ADD20O,2.400000X2.400000*%
%ADD21O,1.700000X1.700000*%
%ADD22R,1.700000X1.700000*%
%ADD23O,2.200000X2.200000*%
%ADD24R,2.200000X2.200000*%
%ADD25C,1.440000*%
%ADD26O,1.905000X2.000000*%
%ADD27R,1.905000X2.000000*%
%ADD28R,1.600000X1.600000*%
%ADD29C,4.000000*%
%ADD30C,1.000000*%
%ADD31C,2.000000*%
G04 APERTURE END LIST*
D10*
X196500000Y-125000000D02*
G75*
G03X196500000Y-125000000I-1500000J0D01*
G01*
X196500000Y-35000000D02*
G75*
G03X196500000Y-35000000I-1500000J0D01*
G01*
X106500000Y-35000000D02*
G75*
G03X106500000Y-35000000I-1500000J0D01*
G01*
X106500000Y-125000000D02*
G75*
G03X106500000Y-125000000I-1500000J0D01*
G01*
D11*
X153750000Y-41000000D03*
X127750000Y-41000000D03*
X153750000Y-49000000D03*
D12*
X127750000Y-49000000D03*
D13*
X187000000Y-43000000D03*
X113000000Y-43000000D03*
X187000000Y-117000000D03*
X113000000Y-117000000D03*
D14*
X113000000Y-77500000D03*
D15*
X113000000Y-72500000D03*
D16*
X122500000Y-84500000D03*
X122500000Y-79500000D03*
D14*
X152500000Y-77750000D03*
D15*
X152500000Y-72750000D03*
D17*
X181250000Y-77750000D03*
D18*
X181250000Y-72750000D03*
D19*
X174660000Y-38000000D03*
D16*
X164500000Y-38000000D03*
D19*
X174660000Y-47000000D03*
D16*
X164500000Y-47000000D03*
D19*
X185500000Y-67500000D03*
D16*
X185500000Y-57340000D03*
D19*
X154061280Y-111459900D03*
D16*
X154061280Y-101299900D03*
D19*
X137840000Y-87250000D03*
D16*
X148000000Y-87250000D03*
D20*
X194500000Y-110460000D03*
D17*
X194500000Y-49500000D03*
D19*
X144590000Y-66000000D03*
D16*
X154750000Y-66000000D03*
D19*
X118434480Y-69284300D03*
D16*
X118434480Y-59124300D03*
D19*
X160586540Y-101289740D03*
D16*
X160586540Y-111449740D03*
D19*
X166733340Y-101289740D03*
D16*
X166733340Y-111449740D03*
D19*
X137840000Y-92500000D03*
D16*
X148000000Y-92500000D03*
D21*
X180500000Y-60960000D03*
D22*
X180500000Y-63500000D03*
D21*
X168210000Y-33750000D03*
D22*
X170750000Y-33750000D03*
D21*
X168210000Y-42750000D03*
D22*
X170750000Y-42750000D03*
D23*
X168550000Y-53250000D03*
D24*
X181250000Y-53250000D03*
D16*
X144500000Y-75250000D03*
X144500000Y-70250000D03*
X137000000Y-80500000D03*
X137000000Y-83000000D03*
D25*
X173441480Y-107726100D03*
X173441480Y-105186100D03*
X173441480Y-102646100D03*
D26*
X164486080Y-88377900D03*
X167026080Y-88377900D03*
D27*
X169566080Y-88377900D03*
D23*
X181250000Y-85000000D03*
D24*
X171090000Y-85000000D03*
D16*
X124500000Y-64500000D03*
X124500000Y-62000000D03*
X129750000Y-83000000D03*
X129750000Y-80500000D03*
D19*
X138770480Y-64649700D03*
X131150480Y-72269700D03*
X138770480Y-67189700D03*
X131150480Y-69729700D03*
X138770480Y-69729700D03*
X131150480Y-67189700D03*
X138770480Y-72269700D03*
D28*
X131150480Y-64649700D03*
D14*
X179025000Y-92275000D03*
X155025000Y-92275000D03*
X125499996Y-89500000D03*
X125500004Y-75000000D03*
D29*
X113000000Y-43000000D02*
X119000000Y-49000000D01*
D30*
X119000000Y-49000000D02*
X113000000Y-55000000D01*
X114500000Y-56500000D02*
X113000000Y-55000000D01*
X126810780Y-56500000D02*
X114500000Y-56500000D01*
X134452480Y-64141700D02*
X126810780Y-56500000D01*
X134452480Y-65157700D02*
X134452480Y-64141700D01*
X136484480Y-67189700D02*
X134452480Y-65157700D01*
X138770480Y-67189700D02*
X136484480Y-67189700D01*
X140040480Y-67189700D02*
X138770480Y-67189700D01*
X143596480Y-63633700D02*
X140040480Y-67189700D01*
X145653880Y-63633700D02*
X143596480Y-63633700D01*
X147152480Y-65132300D02*
X145653880Y-63633700D01*
X145000000Y-69750000D02*
X147152480Y-67597520D01*
X147152480Y-67597520D02*
X147152480Y-65132300D01*
X152500000Y-72750000D02*
X147250000Y-67500000D01*
X152500000Y-73000000D02*
X152500000Y-72750000D01*
X120000000Y-79500000D02*
X122500000Y-79500000D01*
X113000000Y-55000000D02*
X113000000Y-72500000D01*
X113000000Y-72500000D02*
X120000000Y-79500000D01*
D29*
X119000000Y-49000000D02*
X127750000Y-49000000D01*
D31*
X154068900Y-111546260D02*
X154086680Y-111564040D01*
D29*
X113000000Y-117000000D02*
X120184204Y-117000000D01*
D31*
X188000000Y-117000000D02*
X194500000Y-110500000D01*
D30*
X138770480Y-72269700D02*
X140294480Y-72269700D01*
X140294480Y-72269700D02*
X142000000Y-73975220D01*
X148649300Y-74149300D02*
X152500000Y-78000000D01*
X142000000Y-74000000D02*
X142149300Y-74149300D01*
X144500000Y-74250000D02*
X144399300Y-74149300D01*
X144500000Y-75250000D02*
X144500000Y-74250000D01*
X142149300Y-74149300D02*
X144399300Y-74149300D01*
X144399300Y-74149300D02*
X148649300Y-74149300D01*
X129500000Y-84500000D02*
X129750000Y-84750000D01*
X122500000Y-84500000D02*
X129500000Y-84500000D01*
X129750000Y-83000000D02*
X129750000Y-84750000D01*
X138770480Y-75241500D02*
X138770480Y-72269700D01*
X137000000Y-80500000D02*
X138770480Y-78729520D01*
X138770480Y-78729520D02*
X138770480Y-75241500D01*
D29*
X153500000Y-117000000D02*
X188000000Y-117000000D01*
X120184204Y-117000000D02*
X153500000Y-117000000D01*
D30*
X129750000Y-100744220D02*
X133284080Y-104278300D01*
X129750000Y-84750000D02*
X129750000Y-100744220D01*
X142149300Y-101100700D02*
X142149300Y-74149300D01*
X138971700Y-104278300D02*
X142149300Y-101100700D01*
X138971700Y-104278300D02*
X133284080Y-104278300D01*
X160500000Y-101250000D02*
X156826289Y-104923711D01*
X139617111Y-104923711D02*
X138971700Y-104278300D01*
X156826289Y-104923711D02*
X139617111Y-104923711D01*
D31*
X181250000Y-77750000D02*
X181250000Y-85000000D01*
D30*
X120000000Y-84500000D02*
X122500000Y-84500000D01*
X113000000Y-116500000D02*
X113000000Y-77500000D01*
X113000000Y-77500000D02*
X120000000Y-84500000D01*
D31*
X187250000Y-91000000D02*
X187250000Y-117000000D01*
X181250000Y-85000000D02*
X187250000Y-91000000D01*
X154070000Y-116960000D02*
X154070000Y-111460000D01*
D30*
X141818480Y-61601700D02*
X138770480Y-64649700D01*
X148453580Y-87250000D02*
X156250000Y-79453580D01*
X148000000Y-87250000D02*
X148453580Y-87250000D01*
X148422480Y-61601700D02*
X141818480Y-61601700D01*
X156250000Y-79453580D02*
X156250000Y-71750000D01*
X156250000Y-71750000D02*
X149794080Y-65294080D01*
X149794080Y-65294080D02*
X149794080Y-62973300D01*
X149794080Y-62973300D02*
X148422480Y-61601700D01*
X131150480Y-69729700D02*
X129448680Y-69729700D01*
X129448680Y-69729700D02*
X128508880Y-70669500D01*
X128508880Y-70669500D02*
X128508880Y-79258880D01*
X128508880Y-79258880D02*
X129750000Y-80500000D01*
X129750000Y-80500000D02*
X132000000Y-80500000D01*
X132000000Y-80500000D02*
X132750000Y-81250000D01*
X132750000Y-81250000D02*
X132750000Y-90500000D01*
X132750000Y-90500000D02*
X134750000Y-92500000D01*
X134750000Y-92500000D02*
X137750000Y-92500000D01*
X119458740Y-69261440D02*
X121950480Y-66769700D01*
X118404000Y-69261440D02*
X119458740Y-69261440D01*
X166733340Y-101289740D02*
X166733340Y-105338500D01*
X166733340Y-105338500D02*
X160632260Y-111439580D01*
X125500004Y-70050624D02*
X125500004Y-73585787D01*
X125500004Y-73585787D02*
X125500004Y-75000000D01*
X121950480Y-66769700D02*
X122110090Y-66610090D01*
X122110090Y-66610090D02*
X124530480Y-64189700D01*
X125500004Y-70000004D02*
X122110090Y-66610090D01*
X125500004Y-70050624D02*
X125500004Y-70000004D01*
X125310300Y-67189700D02*
X124000000Y-68500000D01*
X131150480Y-67189700D02*
X125310300Y-67189700D01*
X125499996Y-90914213D02*
X125499996Y-89500000D01*
X125500000Y-90914217D02*
X125499996Y-90914213D01*
X125500000Y-105500004D02*
X125500000Y-90914217D01*
X127999996Y-108000000D02*
X125500000Y-105500004D01*
X165427780Y-106633900D02*
X164061680Y-108000000D01*
X164061680Y-108000000D02*
X127999996Y-108000000D01*
X121990480Y-59149700D02*
X124530480Y-61689700D01*
X118409080Y-59124300D02*
X118434480Y-59149700D01*
X118434480Y-59149700D02*
X121990480Y-59149700D01*
X128649700Y-64649700D02*
X131150480Y-64649700D01*
X126000000Y-62000000D02*
X128649700Y-64649700D01*
X126000000Y-62000000D02*
X124500000Y-62000000D01*
X131150480Y-74657300D02*
X131150480Y-72269700D01*
X137000000Y-86410000D02*
X137000000Y-83000000D01*
X137840000Y-87250000D02*
X137000000Y-86410000D01*
X137000000Y-83000000D02*
X135750000Y-83000000D01*
X135750000Y-83000000D02*
X134750000Y-82000000D01*
X134750000Y-82000000D02*
X134750000Y-78256820D01*
X134750000Y-78256820D02*
X131150480Y-74657300D01*
D31*
X181250000Y-72750000D02*
X181250000Y-71750000D01*
X181250000Y-71750000D02*
X185500000Y-67500000D01*
X184500000Y-67500000D02*
X185500000Y-67500000D01*
X180600000Y-63600000D02*
X184500000Y-67500000D01*
X168210000Y-42750000D02*
X164500000Y-46460000D01*
X164500000Y-46460000D02*
X164500000Y-47000000D01*
X164500000Y-47000000D02*
X168500000Y-51000000D01*
X168550000Y-51050000D02*
X168500000Y-51000000D01*
X168550000Y-53250000D02*
X168550000Y-51050000D01*
D30*
X169500000Y-69250000D02*
X169500000Y-74500000D01*
X154500000Y-66000000D02*
X166250000Y-66000000D01*
X166250000Y-66000000D02*
X169500000Y-69250000D01*
X171090000Y-85000000D02*
X169500000Y-85000000D01*
X169500000Y-74250000D02*
X169500000Y-85000000D01*
X169500000Y-85000000D02*
X169500000Y-88500000D01*
X154061280Y-101299900D02*
X148000000Y-95238620D01*
X148000000Y-95238620D02*
X148000000Y-92500000D01*
D31*
X154000000Y-101250000D02*
X154500000Y-101250000D01*
X154750000Y-101250000D02*
X154000000Y-101250000D01*
X164500000Y-88400000D02*
X164500000Y-91500000D01*
X164500000Y-91500000D02*
X154750000Y-101250000D01*
D30*
X144434680Y-66565320D02*
X144434680Y-65919700D01*
X138770480Y-69729700D02*
X141270300Y-69729700D01*
X141270300Y-69729700D02*
X144434680Y-66565320D01*
X173441480Y-105186100D02*
X173441480Y-107700700D01*
X170474760Y-107726100D02*
X166723180Y-111477680D01*
X173441480Y-107726100D02*
X170474760Y-107726100D01*
D31*
X194500000Y-49500000D02*
X188000000Y-43000000D01*
D30*
X179297919Y-60960000D02*
X178000000Y-62257919D01*
X180500000Y-60960000D02*
X179297919Y-60960000D01*
X178000000Y-98000000D02*
X173500000Y-102500000D01*
D31*
X181250000Y-48750000D02*
X187000000Y-43000000D01*
X181250000Y-53250000D02*
X181250000Y-48750000D01*
X182000000Y-61000000D02*
X180500000Y-61000000D01*
X185360000Y-57640000D02*
X182000000Y-61000000D01*
X181250000Y-53250000D02*
X185360000Y-57360000D01*
X185360000Y-57360000D02*
X185360000Y-57640000D01*
D30*
X178000000Y-98000000D02*
X180550000Y-98000000D01*
X180550000Y-98000000D02*
X182425000Y-96125000D01*
X182425000Y-90825000D02*
X178000000Y-86400000D01*
X182425000Y-96125000D02*
X182425000Y-90825000D01*
X178000000Y-62500000D02*
X178000000Y-86400000D01*
D31*
X174500000Y-90750000D02*
X174250000Y-91000000D01*
X172427100Y-92822900D02*
X174500000Y-90750000D01*
X168471080Y-92822900D02*
X172427100Y-92822900D01*
X167026080Y-88377900D02*
X167026080Y-91377900D01*
X167026080Y-91377900D02*
X168471080Y-92822900D01*
X174500000Y-46250000D02*
X174500000Y-90750000D01*
X170750000Y-42500000D02*
X174500000Y-46250000D01*
X170750000Y-42000000D02*
X170750000Y-42500000D01*
X174750000Y-38000000D02*
X170750000Y-42000000D01*
X170750000Y-33750000D02*
X170750000Y-34000000D01*
X170750000Y-34000000D02*
X174750000Y-38000000D01*
X153750000Y-48750000D02*
X164500000Y-38000000D01*
X153750000Y-49000000D02*
X153750000Y-48750000D01*
X164500000Y-37460000D02*
X168210000Y-33750000D01*
X164500000Y-38000000D02*
X164500000Y-37460000D01*
M02*
